<svg width="22" height="22" viewBox="0 0 22 22" fill="none" xmlns="http://www.w3.org/2000/svg">
<rect width="22" height="22" rx="10" fill="#3F51B5"/>
<g clip-path="url(#clip0_2690_10950)">
<path d="M-6.80664 -0.28418H28.8068V22.2848H-6.80664V-0.28418Z" fill="#3F51B5"/>
<path d="M-6.80664 3.11406L10.0369 13.366L12.5695 9.23912L-3.07694 -0.28418H-6.80664V3.11406Z" fill="white"/>
<path d="M28.8065 -0.28418H25.8854L10.2397 9.23831L12.7715 13.366L28.8065 3.60574V-0.28418Z" fill="white"/>
<path d="M12.7715 7.99414L10.2397 12.121L26.9376 22.2843H28.8065V17.7536L12.7715 7.99414Z" fill="white"/>
<path d="M-6.80664 18.2469V22.2843H-4.12754L12.5695 12.1218L10.0377 7.99414L-6.80664 18.2469Z" fill="white"/>
<path d="M-6.80664 7.77539H28.8068V14.2237H-6.80664V7.77539Z" fill="white"/>
<path d="M7.7626 -0.28418H14.2378V22.2848H7.7626V-0.28418Z" fill="white"/>
<path d="M5.51077 7.77617L-6.80664 0.279239V2.16858L2.40592 7.77617H5.51077ZM27.4381 -0.28418L14.1948 7.77617H17.2988L28.8068 0.772531V-0.28418H27.4381ZM18.351 14.2244L28.8068 20.5881V18.6987L21.4551 14.2244H18.351ZM4.45855 14.2244L-6.80664 21.0806V22.2848H-5.67996L7.56259 14.2244H4.45855ZM-6.80664 9.38823H28.8068V12.6124H-6.80664V9.38823Z" fill="#E53935"/>
<path d="M9.38135 -0.28418H12.6189V22.2848H9.38135V-0.28418Z" fill="#E53935"/>
</g>
<defs>
<clipPath id="clip0_2690_10950">
<rect width="22" height="22" rx="10" fill="white"/>
</clipPath>
</defs>
</svg>
