<svg width="18" height="18" viewBox="0 0 18 18" fill="none" xmlns="http://www.w3.org/2000/svg">
<path d="M5.99709 3.80374V15.4267C5.99709 15.5912 5.95443 15.7324 5.87222 15.8469C5.78936 15.9608 5.66636 16.0208 5.50445 16.0208C5.39087 16.0208 5.28041 15.9936 5.17372 15.9411L0.501431 13.6326C0.3596 13.5676 0.242243 13.4548 0.144969 13.3014C0.0476959 13.1472 0 12.9931 0 12.8408V1.54417C0 1.41231 0.0326333 1.29964 0.101039 1.2074C0.166934 1.11516 0.264209 1.06812 0.392861 1.06812C0.486369 1.06812 0.633223 1.11702 0.835299 1.21669L5.96949 3.75297C5.9858 3.77464 5.99709 3.79074 5.99709 3.80374Z" fill="white"/>
<path d="M6.63953 4.80493L12.0027 13.3859L6.63953 10.7499V4.80493Z" fill="white"/>
<path d="M18 4.9834V15.4269C18 15.5916 17.9523 15.7259 17.8588 15.8268C17.7653 15.9302 17.6385 15.981 17.4766 15.981C17.3154 15.981 17.159 15.9377 17.0047 15.8522L12.5764 13.673L18 4.9834Z" fill="white"/>
<path d="M17.9712 3.79373C17.9712 3.81354 17.1115 5.19956 15.3938 7.94996C13.6767 10.7022 12.6701 12.3111 12.3763 12.7803L8.45837 6.49893L11.713 1.27733C11.8266 1.09286 12.0011 1 12.2345 1C12.328 1 12.4147 1.02043 12.4956 1.06005L17.9305 3.73616C17.9563 3.74669 17.9712 3.7665 17.9712 3.79373Z" fill="white"/>
</svg>
