<svg width="25" height="23" viewBox="0 0 25 23" fill="none" xmlns="http://www.w3.org/2000/svg">
<path d="M24.9997 11.6631C24.9804 11.1349 24.8086 10.6234 24.5052 10.1906C24.2018 9.75767 23.7797 9.42179 23.2897 9.22341C22.7997 9.02503 22.2628 8.97262 21.7436 9.07251C21.2245 9.17239 20.7454 9.42031 20.364 9.78636C18.229 8.33507 15.7194 7.53328 13.1384 7.47791L14.3583 1.62234L18.3746 2.46689C18.4224 2.91072 18.6267 3.323 18.9511 3.62972C19.2754 3.93644 19.6984 4.11752 20.1442 4.14046C20.59 4.16339 21.0294 4.02668 21.3835 3.75487C21.7376 3.48305 21.9832 3.09392 22.0762 2.65734C22.1692 2.22075 22.1036 1.7653 21.8911 1.37274C21.6786 0.980173 21.3332 0.676201 20.9168 0.515387C20.5003 0.354573 20.0402 0.347447 19.6191 0.495289C19.1979 0.643131 18.8432 0.936258 18.6186 1.32205L14.0205 0.40243C13.9453 0.385933 13.8675 0.384525 13.7918 0.398288C13.7161 0.412051 13.6438 0.440712 13.5792 0.482609C13.5146 0.524506 13.459 0.578806 13.4155 0.642362C13.3721 0.705918 13.3417 0.777465 13.3261 0.852858L11.9372 7.3653C9.32454 7.40469 6.78035 8.20709 4.61778 9.67375C4.32846 9.40152 3.9834 9.19547 3.60653 9.06985C3.22965 8.94424 2.82997 8.90208 2.43518 8.94629C2.04039 8.99049 1.65994 9.12002 1.32018 9.32587C0.98042 9.53173 0.689488 9.80901 0.467541 10.1385C0.245594 10.468 0.0979416 10.8417 0.0348158 11.234C-0.02831 11.6262 -0.00539934 12.0274 0.10196 12.4099C0.209319 12.7924 0.39856 13.1469 0.656567 13.449C0.914574 13.7511 1.23518 13.9934 1.59616 14.1593C1.57503 14.4341 1.57503 14.7102 1.59616 14.9851C1.59616 19.1891 6.49457 22.6048 12.5378 22.6048C18.5811 22.6048 23.4795 19.1891 23.4795 14.9851C23.5006 14.7102 23.5006 14.4341 23.4795 14.1593C23.9426 13.9291 24.3311 13.5725 24.6001 13.1308C24.8692 12.6891 25.0077 12.1803 24.9997 11.6631ZM6.23182 13.5399C6.23182 13.1687 6.34189 12.8059 6.54811 12.4972C6.75434 12.1886 7.04745 11.9481 7.39039 11.806C7.73333 11.664 8.11069 11.6268 8.47475 11.6992C8.83881 11.7716 9.17322 11.9504 9.43569 12.2128C9.69816 12.4753 9.87691 12.8097 9.94933 13.1738C10.0217 13.5378 9.98458 13.9152 9.84253 14.2581C9.70048 14.6011 9.45993 14.8942 9.15129 15.1004C8.84266 15.3066 8.4798 15.4167 8.1086 15.4167C7.86214 15.4167 7.61809 15.3682 7.39039 15.2738C7.16269 15.1795 6.95579 15.0413 6.78152 14.867C6.60724 14.6927 6.469 14.4858 6.37468 14.2581C6.28036 14.0304 6.23182 13.7864 6.23182 13.5399ZM17.1359 18.7011C15.8044 19.7045 14.1661 20.2152 12.5003 20.1462C10.8344 20.2152 9.19616 19.7045 7.86462 18.7011C7.78481 18.6038 7.74403 18.4804 7.7502 18.3548C7.75637 18.2291 7.80906 18.1102 7.89801 18.0213C7.98696 17.9323 8.10582 17.8797 8.23147 17.8735C8.35711 17.8673 8.48056 17.9081 8.5778 17.9879C9.70618 18.8156 11.0835 19.2327 12.4815 19.1703C13.8812 19.2464 15.265 18.8425 16.404 18.0254C16.5035 17.9284 16.6376 17.8748 16.7766 17.8766C16.8454 17.8775 16.9134 17.8919 16.9767 17.919C17.04 17.9462 17.0973 17.9855 17.1453 18.0348C17.1934 18.0841 17.2313 18.1424 17.2568 18.2063C17.2823 18.2703 17.295 18.3386 17.2942 18.4074C17.2933 18.4763 17.2789 18.5443 17.2517 18.6075C17.2246 18.6708 17.1852 18.7281 17.1359 18.7762V18.7011ZM16.7981 15.4918C16.4269 15.4918 16.0641 15.3817 15.7554 15.1755C15.4468 14.9693 15.2062 14.6762 15.0642 14.3332C14.9221 13.9903 14.885 13.6129 14.9574 13.2489C15.0298 12.8848 15.2086 12.5504 15.471 12.2879C15.7335 12.0254 16.0679 11.8467 16.432 11.7743C16.796 11.7019 17.1734 11.739 17.5163 11.8811C17.8593 12.0231 18.1524 12.2637 18.3586 12.5723C18.5648 12.8809 18.6749 13.2438 18.6749 13.615C18.6851 13.8693 18.6435 14.123 18.5525 14.3607C18.4616 14.5984 18.3233 14.8151 18.146 14.9977C17.9687 15.1803 17.7561 15.3249 17.5212 15.4227C17.2862 15.5206 17.0338 15.5696 16.7794 15.5669L16.7981 15.4918Z" fill="white"/>
</svg>
