<svg width="18" height="18" viewBox="0 0 18 18" fill="none" xmlns="http://www.w3.org/2000/svg">
<path d="M18 3.73507C17.3372 4.02987 16.6266 4.22934 15.8795 4.3188C16.6422 3.86072 17.2261 3.13373 17.5029 2.27084C16.7874 2.6952 15.9979 3.0032 15.1563 3.16991C14.4827 2.44929 13.5245 2 12.4615 2C10.4224 2 8.76875 3.6588 8.76875 5.70285C8.76875 5.99325 8.80142 6.27632 8.86429 6.54716C5.7958 6.39267 3.0753 4.91769 1.254 2.67711C0.935752 3.2232 0.754935 3.85925 0.754935 4.5388C0.754935 5.82361 1.40704 6.95783 2.39688 7.62125C1.79157 7.60072 1.22281 7.43401 0.724234 7.15632V7.20276C0.724234 8.9965 1.99773 10.4939 3.68598 10.8347C3.3765 10.9179 3.05045 10.9643 2.71319 10.9643C2.47438 10.9643 2.24385 10.9408 2.01771 10.8953C2.48802 12.3679 3.8512 13.4386 5.46634 13.4679C4.20308 14.4608 2.61085 15.0509 0.880677 15.0509C0.582405 15.0509 0.289011 15.0328 0 15.0001C1.63415 16.0531 3.57437 16.6667 5.65983 16.6667C12.4523 16.6667 16.1656 11.0229 16.1656 6.12867L16.1529 5.64907C16.8786 5.12987 17.5064 4.47769 18 3.73507Z" fill="white"/>
</svg>
