<svg width="300" height="39" viewBox="0 0 300 39" fill="none" xmlns="http://www.w3.org/2000/svg">
<line x1="201.879" y1="1.18457" x2="201.879" y2="37.9435" stroke="white" stroke-width="2.96443"/>
<path d="M223.434 30.346C221.801 30.346 220.33 30 219.023 29.308C217.735 28.616 216.812 27.7317 216.255 26.6553L218.417 25.0406C219.628 26.9052 221.32 27.8375 223.492 27.8375C224.588 27.8375 225.491 27.5683 226.203 27.0301C226.914 26.4726 227.269 25.723 227.269 24.7811C227.269 23.2048 226.289 22.0514 224.328 21.321L221.618 20.283C220.003 19.6871 218.821 18.947 218.071 18.0628C217.341 17.1593 216.976 16.0155 216.976 14.6315C216.976 12.9784 217.572 11.6616 218.763 10.6813C219.974 9.68169 221.512 9.18191 223.377 9.18191C224.626 9.18191 225.77 9.44141 226.808 9.96042C227.846 10.4602 228.692 11.133 229.345 11.9788L227.385 13.7088C226.251 12.3632 224.895 11.6905 223.319 11.6905C222.281 11.6905 221.406 11.9596 220.695 12.4978C219.984 13.0168 219.628 13.6896 219.628 14.5162C219.628 15.3428 219.869 15.9963 220.349 16.4769C220.83 16.9575 221.618 17.3996 222.714 17.8033L225.193 18.7548C226.77 19.3507 227.952 20.1196 228.74 21.0615C229.547 22.0034 229.951 23.2048 229.951 24.6657C229.951 26.3765 229.336 27.751 228.106 28.789C226.895 29.827 225.338 30.346 223.434 30.346ZM233.926 30V15.583H236.405V17.8033C237.386 16.1309 238.914 15.2947 240.99 15.2947C242.624 15.2947 243.941 15.8233 244.94 16.8806C245.94 17.9378 246.44 19.3507 246.44 21.1192V30H243.989V21.494C243.989 20.283 243.681 19.3314 243.066 18.6394C242.451 17.9282 241.624 17.5726 240.586 17.5726C239.395 17.5726 238.395 18.0435 237.588 18.9854C236.8 19.9273 236.405 21.2153 236.405 22.8492V30H233.926ZM257.422 30.2883C255.422 30.2883 253.74 29.5579 252.376 28.097C251.03 26.636 250.357 24.8676 250.357 22.7915C250.357 20.7155 251.03 18.947 252.376 17.4861C253.74 16.0252 255.422 15.2947 257.422 15.2947C258.479 15.2947 259.459 15.535 260.363 16.0155C261.285 16.4769 261.997 17.0728 262.496 17.8033V15.583H264.976V30H262.496V27.7798C261.997 28.5102 261.285 29.1158 260.363 29.5963C259.459 30.0577 258.479 30.2883 257.422 30.2883ZM257.796 28.0105C259.219 28.0105 260.391 27.5107 261.314 26.5111C262.237 25.5115 262.698 24.2717 262.698 22.7915C262.698 21.3114 262.237 20.0715 261.314 19.0719C260.391 18.0724 259.219 17.5726 257.796 17.5726C256.355 17.5726 255.173 18.0724 254.25 19.0719C253.327 20.0715 252.866 21.3114 252.866 22.7915C252.866 24.2717 253.327 25.5115 254.25 26.5111C255.173 27.5107 256.355 28.0105 257.796 28.0105ZM272.7 36.0263H270.22V15.583H272.7V17.8033C273.2 17.0728 273.902 16.4769 274.805 16.0155C275.728 15.535 276.718 15.2947 277.775 15.2947C279.774 15.2947 281.446 16.0252 282.792 17.4861C284.157 18.947 284.839 20.7155 284.839 22.7915C284.839 24.8676 284.157 26.636 282.792 28.097C281.446 29.5579 279.774 30.2883 277.775 30.2883C276.718 30.2883 275.728 30.0577 274.805 29.5963C273.902 29.1158 273.2 28.5102 272.7 27.7798V36.0263ZM273.882 26.5111C274.805 27.5107 275.978 28.0105 277.4 28.0105C278.823 28.0105 279.995 27.5107 280.918 26.5111C281.841 25.5115 282.302 24.2717 282.302 22.7915C282.302 21.3114 281.841 20.0715 280.918 19.0719C279.995 18.0724 278.823 17.5726 277.4 17.5726C275.978 17.5726 274.805 18.0724 273.882 19.0719C272.96 20.0715 272.498 21.3114 272.498 22.7915C272.498 24.2717 272.96 25.5115 273.882 26.5111ZM293.313 30.2883C291.987 30.2883 290.824 30.0096 289.824 29.4522C288.825 28.8755 288.104 28.0393 287.662 26.9436L289.68 25.8191C289.949 26.5303 290.42 27.0878 291.093 27.4914C291.766 27.8951 292.515 28.097 293.342 28.097C294.053 28.097 294.649 27.924 295.13 27.578C295.61 27.2319 295.85 26.761 295.85 26.1651C295.85 25.6461 295.658 25.2136 295.274 24.8676C294.909 24.5216 294.265 24.2044 293.342 23.916L291.9 23.4547C289.497 22.7627 288.296 21.3594 288.296 19.2449C288.296 18.0531 288.767 17.1016 289.709 16.3904C290.67 15.6599 291.852 15.2947 293.255 15.2947C295.447 15.2947 297.033 16.1309 298.013 17.8033L296.168 19.0719C295.379 17.9763 294.38 17.4284 293.169 17.4284C292.515 17.4284 291.948 17.5918 291.468 17.9186C291.006 18.2261 290.776 18.6394 290.776 19.1584C290.776 19.639 290.92 20.0523 291.208 20.3983C291.516 20.7251 292.054 21.0038 292.823 21.2345L294.409 21.7247C297.023 22.532 298.33 23.9449 298.33 25.9633C298.33 27.3088 297.859 28.3661 296.917 29.135C295.995 29.9039 294.793 30.2883 293.313 30.2883Z" fill="white"/>
<path d="M153.497 19.5077C152.193 18.4789 150.77 17.7931 149.347 16.9015C148.458 16.3528 147.509 15.8041 146.738 15.0496C145.434 13.8151 145.671 11.346 147.094 10.2486C149.051 8.73975 152.312 9.56278 152.667 12.6491C152.667 12.7177 152.727 12.7863 152.786 12.7863H155.75C155.81 12.7863 155.869 12.7177 155.869 12.6491C155.691 10.523 154.98 8.73975 153.675 7.57379C152.43 6.47642 151.007 5.92773 149.466 5.92773C141.64 5.92773 140.928 15.5297 145.138 18.5475C145.612 18.8904 149.762 21.2909 151.244 22.3883C152.727 23.4171 153.142 25.3375 152.549 26.8464C151.956 28.2181 150.474 29.1783 148.991 29.0411C147.331 28.904 146.086 27.8752 145.612 26.2977C145.553 26.0234 145.493 25.4747 145.493 25.2003C145.493 25.1317 145.434 25.0631 145.375 25.0631H142.173C142.114 25.0631 142.055 25.1317 142.055 25.2003C142.055 27.8752 142.648 29.3841 144.189 30.7558C145.671 32.0589 147.272 32.6076 148.991 32.6076C153.379 32.6076 155.632 29.727 156.106 26.7778C156.462 23.8972 155.75 21.2909 153.497 19.5077Z" fill="white"/>
<path d="M13.7549 6.47656H12.332H10.7905C10.7312 6.47656 10.6719 6.54514 10.6719 6.54514L8.00394 16.6272C7.94465 16.7644 7.82608 16.7644 7.76679 16.6272L5.09881 6.54514C5.09881 6.47656 5.03953 6.47656 4.98024 6.47656H3.43873H2.01581H0.118584C0.0592957 6.47656 0 6.54515 0 6.61373V32.3334C0 32.402 0.0592957 32.4706 0.118584 32.4706H3.32016C3.37945 32.4706 3.43873 32.402 3.43873 32.3334V12.7864C3.43873 12.6493 3.6166 12.5807 3.67589 12.7179L6.34387 22.8685L6.52173 23.5544C6.52173 23.623 6.58103 23.623 6.64032 23.623H9.13043C9.18972 23.623 9.249 23.5544 9.249 23.5544L9.42687 22.8685L12.0949 12.7179C12.1541 12.5807 12.332 12.5807 12.332 12.7864V32.3334C12.332 32.402 12.3913 32.4706 12.4506 32.4706H15.6522C15.7114 32.4706 15.7707 32.402 15.7707 32.3334V6.61373C15.7707 6.54515 15.7114 6.47656 15.6522 6.47656H13.7549Z" fill="white"/>
<path d="M104.231 6.47656C104.171 6.47656 104.112 6.54514 104.112 6.54514L101.444 16.6272C101.385 16.7644 101.266 16.7644 101.207 16.6272L98.539 6.54514C98.539 6.47656 98.4797 6.47656 98.4204 6.47656H93.4994C93.4402 6.47656 93.3809 6.54515 93.3809 6.61373V32.3334C93.3809 32.402 93.4402 32.4706 93.4994 32.4706H96.701C96.7603 32.4706 96.8196 32.402 96.8196 32.3334V12.7864C96.8196 12.6493 96.9975 12.5807 97.0568 12.7179L99.7247 22.8685L99.9026 23.5544C99.9026 23.623 99.9619 23.623 100.021 23.623H102.511C102.571 23.623 102.63 23.5544 102.63 23.5544L102.808 22.8685L105.476 12.7179C105.535 12.5807 105.713 12.5807 105.713 12.7864V32.3334C105.713 32.402 105.772 32.4706 105.831 32.4706H109.033C109.092 32.4706 109.152 32.402 109.152 32.3334V6.61373C109.152 6.54515 109.092 6.47656 109.033 6.47656H104.231Z" fill="white"/>
<path d="M62.7288 6.47656H56.7406H53.5391H47.4916C47.4323 6.47656 47.373 6.54515 47.373 6.61373V9.83726C47.373 9.90584 47.4323 9.97443 47.4916 9.97443H53.3612V32.3334C53.3612 32.402 53.4205 32.4706 53.4798 32.4706H56.6813C56.7406 32.4706 56.7999 32.402 56.7999 32.3334V9.97443H62.6695C62.7288 9.97443 62.788 9.90584 62.788 9.83726V6.61373C62.8473 6.54515 62.7881 6.47656 62.7288 6.47656Z" fill="white"/>
<path d="M81.6994 32.4708H84.6046C84.6638 32.4708 84.7231 32.4022 84.7231 32.265L78.6757 6.47679C78.6757 6.40821 78.6164 6.4082 78.5571 6.4082H77.4306H75.4741H74.3476C74.2883 6.4082 74.2291 6.47679 74.2291 6.47679L68.1816 32.265C68.1816 32.3336 68.2409 32.4708 68.3002 32.4708H71.2054C71.2646 32.4708 71.3239 32.4022 71.3239 32.4022L73.1026 24.8578C73.1026 24.7892 73.1619 24.7892 73.2212 24.7892H79.6836C79.7429 24.7892 79.8022 24.8578 79.8022 24.8578L81.5808 32.4022C81.5808 32.4022 81.6401 32.4708 81.6994 32.4708ZM73.9919 21.0855L76.3635 11.0034C76.4227 10.8663 76.5413 10.8663 76.6006 11.0034L78.9721 21.0855C78.9721 21.1541 78.9129 21.2913 78.8536 21.2913H74.1698C74.0512 21.2913 73.9919 21.1541 73.9919 21.0855Z" fill="white"/>
<path d="M131.619 32.4708H134.524C134.584 32.4708 134.643 32.4022 134.643 32.265L128.596 6.47679C128.596 6.40821 128.536 6.4082 128.477 6.4082H127.351H125.394H124.268C124.208 6.4082 124.149 6.47679 124.149 6.47679L118.102 32.265C118.102 32.3336 118.161 32.4708 118.22 32.4708H121.125C121.185 32.4708 121.244 32.4022 121.244 32.4022L123.022 24.8578C123.022 24.7892 123.082 24.7892 123.141 24.7892H129.604C129.663 24.7892 129.722 24.8578 129.722 24.8578L131.501 32.4022C131.501 32.4022 131.56 32.4708 131.619 32.4708ZM123.912 21.0855L126.283 11.0034C126.343 10.8663 126.461 10.8663 126.521 11.0034L128.892 21.0855C128.892 21.1541 128.833 21.2913 128.773 21.2913H124.09C123.971 21.2913 123.912 21.1541 123.912 21.0855Z" fill="white"/>
<path d="M28.8157 28.6297V20.6738C28.8157 20.6052 28.875 20.5366 28.9343 20.5366H37.5311C37.5904 20.5366 37.6497 20.468 37.6497 20.3995V17.1759C37.6497 17.1073 37.5904 17.0388 37.5311 17.0388H28.9343C28.875 17.0388 28.8157 16.9702 28.8157 16.9016V10.1116C28.8157 10.043 28.875 9.97443 28.9343 9.97443H38.6576C38.7169 9.97443 38.7761 9.90584 38.7761 9.83726V6.61373C38.7761 6.54515 38.7169 6.47656 38.6576 6.47656H28.8157H25.4955C25.4362 6.47656 25.377 6.54515 25.377 6.61373V9.97443V17.1074V20.6052V28.8355V32.3334C25.377 32.402 25.4362 32.4706 25.4955 32.4706H28.8157H39.0726C39.1319 32.4706 39.1912 32.402 39.1912 32.3334V28.9727C39.1912 28.9041 39.1319 28.8355 39.0726 28.8355H28.875C28.875 28.7669 28.8157 28.6983 28.8157 28.6297Z" fill="white"/>
<path d="M182.907 32.1964L171.761 18.8908C171.701 18.8222 171.701 18.7536 171.761 18.685L181.78 6.61396C181.84 6.54538 181.78 6.4082 181.721 6.4082H177.63C177.571 6.4082 177.571 6.40821 177.571 6.47679L169.033 16.7647C168.974 16.8332 168.855 16.7646 168.855 16.6961V6.68254C168.855 6.61396 168.796 6.54537 168.737 6.54537H165.476C165.417 6.54537 165.357 6.61396 165.357 6.68254V32.4022C165.357 32.4708 165.417 32.5394 165.476 32.5394H168.678C168.737 32.5394 168.796 32.4708 168.796 32.4022V21.0855C168.796 20.9484 168.915 20.8798 168.974 21.017L178.579 32.5394L178.638 32.6079H182.729C182.907 32.4708 182.966 32.265 182.907 32.1964Z" fill="white"/>
</svg>
