<svg width="47" height="51" viewBox="0 0 47 51" fill="none" xmlns="http://www.w3.org/2000/svg">
<path fill-rule="evenodd" clip-rule="evenodd" d="M23.375 6.5C24.6176 6.5 25.625 5.49264 25.625 4.25C25.625 3.00736 24.6176 2 23.375 2C22.1324 2 21.125 3.00736 21.125 4.25C21.125 5.49264 22.1324 6.5 23.375 6.5ZM27.5043 5.26003C27.5832 4.93629 27.625 4.59803 27.625 4.25C27.625 1.90279 25.7222 0 23.375 0C21.0278 0 19.125 1.90279 19.125 4.25C19.125 4.46257 19.1406 4.6715 19.1707 4.8757L6.76413 12.5105C6.06006 11.9931 5.19072 11.6875 4.25 11.6875C1.90279 11.6875 0 13.5903 0 15.9375C0 17.9178 1.35445 19.5818 3.1875 20.0536V30.9464C1.35445 31.4182 0 33.0822 0 35.0625C0 37.4097 1.90279 39.3125 4.25 39.3125C5.19072 39.3125 6.06006 39.0069 6.76413 38.4895L19.1707 46.1243C19.1406 46.3285 19.125 46.5374 19.125 46.75C19.125 49.0972 21.0278 51 23.375 51C25.7222 51 27.625 49.0972 27.625 46.75C27.625 46.402 27.5832 46.0637 27.5043 45.74L39.6833 38.2452C40.4332 38.9093 41.4195 39.3125 42.5 39.3125C44.8472 39.3125 46.75 37.4097 46.75 35.0625C46.75 33.0374 45.3336 31.3431 43.4375 30.9162V20.0838C45.3336 19.6569 46.75 17.9626 46.75 15.9375C46.75 13.5903 44.8472 11.6875 42.5 11.6875C41.4195 11.6875 40.4332 12.0907 39.6833 12.7548L27.5043 5.26003ZM8.5 15.9375C8.5 15.2632 8.34298 14.6256 8.06351 14.0593L19.9387 6.75144C20.7116 7.81129 21.9629 8.5 23.375 8.5C24.6544 8.5 25.8018 7.93467 26.5809 7.04018L38.5374 14.398C38.3518 14.8754 38.25 15.3945 38.25 15.9375C38.25 17.9178 39.6044 19.5818 41.4375 20.0536V30.9464C39.6044 31.4182 38.25 33.0822 38.25 35.0625C38.25 35.6055 38.3518 36.1246 38.5374 36.602L26.5809 43.9598C25.8018 43.0653 24.6544 42.5 23.375 42.5C21.9629 42.5 20.7116 43.1887 19.9387 44.2486L8.06351 36.9407C8.34298 36.3744 8.5 35.7368 8.5 35.0625C8.5 33.0374 7.08364 31.3431 5.1875 30.9162V20.0838C7.08364 19.6569 8.5 17.9626 8.5 15.9375ZM23.375 49C24.6176 49 25.625 47.9926 25.625 46.75C25.625 45.5074 24.6176 44.5 23.375 44.5C22.1324 44.5 21.125 45.5074 21.125 46.75C21.125 47.9926 22.1324 49 23.375 49ZM44.75 35.0625C44.75 36.3051 43.7426 37.3125 42.5 37.3125C41.2574 37.3125 40.25 36.3051 40.25 35.0625C40.25 33.8199 41.2574 32.8125 42.5 32.8125C43.7426 32.8125 44.75 33.8199 44.75 35.0625ZM4.25 37.3125C5.49264 37.3125 6.5 36.3051 6.5 35.0625C6.5 33.8199 5.49264 32.8125 4.25 32.8125C3.00736 32.8125 2 33.8199 2 35.0625C2 36.3051 3.00736 37.3125 4.25 37.3125ZM44.75 15.9375C44.75 17.1801 43.7426 18.1875 42.5 18.1875C41.2574 18.1875 40.25 17.1801 40.25 15.9375C40.25 14.6949 41.2574 13.6875 42.5 13.6875C43.7426 13.6875 44.75 14.6949 44.75 15.9375ZM4.25 18.1875C5.49264 18.1875 6.5 17.1801 6.5 15.9375C6.5 14.6949 5.49264 13.6875 4.25 13.6875C3.00736 13.6875 2 14.6949 2 15.9375C2 17.1801 3.00736 18.1875 4.25 18.1875ZM24.0366 12.8515C23.5022 12.5464 22.8461 12.5477 22.3129 12.8549L12.827 18.321L21.9123 23.6359C22.7105 24.1029 23.698 24.1048 24.498 23.6411L33.6462 18.3382L24.0366 12.8515ZM11.8603 30.8084V20.2854L20.8374 25.5371C21.6251 25.9979 22.1092 26.842 22.1092 27.7546V37.8017L12.7173 32.3032C12.1865 31.9924 11.8603 31.4235 11.8603 30.8084ZM33.7332 32.2994L24.293 37.7756V27.7644C24.293 26.8481 24.781 26.0012 25.5737 25.5417L34.5962 20.3117V30.8011C34.5962 31.4187 34.2674 31.9895 33.7332 32.2994ZM21.3168 11.1263C22.4641 10.4652 23.8759 10.4624 25.0258 11.1189L34.7121 16.6494C35.8741 17.3129 36.5913 18.5482 36.5913 19.8862V30.8011C36.5913 32.13 35.8838 33.3584 34.7343 34.0252L25.048 39.6441C23.8869 40.3177 22.4531 40.3149 21.2947 39.6366L11.7093 34.0249C10.5671 33.3562 9.86519 32.1319 9.86519 30.8084V19.879C9.86519 18.5463 10.5768 17.315 11.7315 16.6496L21.3168 11.1263Z" fill="#D9D9D9"/>
</svg>
