<svg width="49" height="54" viewBox="0 0 49 54" fill="none" xmlns="http://www.w3.org/2000/svg">
<path fill-rule="evenodd" clip-rule="evenodd" d="M26.0327 2.77602C24.7679 2.05592 23.2146 2.05899 21.9526 2.78408L4.05094 13.0702C2.78109 13.7998 2 15.149 2 16.6077V36.9615C2 38.4102 2.77046 39.7516 4.02651 40.4849L21.9283 50.9356C23.2026 51.6795 24.78 51.6827 26.0573 50.9439L44.1476 40.4796C45.4116 39.7484 46.1882 38.4025 46.1882 36.948V16.6212C46.1882 15.1566 45.401 13.803 44.1232 13.0756L26.0327 2.77602ZM20.9562 1.04996C22.8327 -0.0282285 25.1415 -0.0327886 27.0223 1.03797L45.1127 11.3375C47.0135 12.4197 48.1882 14.4359 48.1882 16.6212V36.948C48.1882 39.1183 47.0294 41.1231 45.149 42.2108L27.0587 52.6751C25.1594 53.7737 22.8148 53.769 20.92 52.6629L3.01819 42.2121C1.14965 41.1213 0 39.1232 0 36.9615V16.6077C0 14.431 1.16552 12.4214 3.05454 11.336L20.9562 1.04996ZM7.91426 15.5131C7.91426 15.3066 8.08643 14.8896 8.87793 14.4656C9.62751 14.064 10.7318 13.7851 12.0064 13.7851C13.281 13.7851 14.3853 14.064 15.1349 14.4656C15.9264 14.8896 16.0985 15.3066 16.0985 15.5131C16.0985 15.7196 15.9264 16.1365 15.1349 16.5605C14.3853 16.9621 13.281 17.241 12.0064 17.241C10.7318 17.241 9.62751 16.9621 8.87793 16.5605C8.08643 16.1365 7.91426 15.7196 7.91426 15.5131ZM12.0064 11.7851C10.4687 11.7851 9.0269 12.1169 7.93349 12.7026C6.88199 13.2659 5.91426 14.213 5.91426 15.5131C5.91426 15.91 6.00445 16.274 6.1597 16.6042C6.00444 16.9345 5.91423 17.2985 5.91423 17.6954C5.91423 18.9955 6.88197 19.9425 7.93346 20.5058C9.02688 21.0916 10.4686 21.4233 12.0064 21.4233C13.5441 21.4233 14.9859 21.0916 16.0793 20.5058C17.1308 19.9425 18.0985 18.9955 18.0985 17.6954C18.0985 17.2985 18.0083 16.9345 17.8531 16.6043C18.0083 16.274 18.0985 15.91 18.0985 15.5131C18.0985 14.213 17.1308 13.2659 16.0793 12.7026C14.9859 12.1169 13.5441 11.7851 12.0064 11.7851ZM15.169 18.7244C14.2365 19.0582 13.1479 19.241 12.0064 19.241C10.8649 19.241 9.7762 19.0582 8.84369 18.7243L8.8779 18.7429C9.62749 19.1444 10.7318 19.4233 12.0064 19.4233C13.2809 19.4233 14.3853 19.1444 15.1348 18.7429L15.169 18.7244ZM20.7068 21.2249C19.9153 21.6489 19.7431 22.0658 19.7431 22.2723C19.7431 22.4788 19.9153 22.8958 20.7068 23.3198C21.4563 23.7213 22.5607 24.0003 23.8352 24.0003C25.1098 24.0003 26.2141 23.7213 26.9637 23.3198C27.7552 22.8958 27.9274 22.4788 27.9274 22.2723C27.9274 22.0658 27.7552 21.6489 26.9637 21.2249C26.2141 20.8233 25.1098 20.5444 23.8352 20.5444C22.5607 20.5444 21.4563 20.8233 20.7068 21.2249ZM19.7623 19.4619C20.8557 18.8761 22.2975 18.5444 23.8352 18.5444C25.373 18.5444 26.8147 18.8761 27.9081 19.4619C28.9596 20.0252 29.9274 20.9722 29.9274 22.2723C29.9274 22.6692 29.8372 23.0332 29.6819 23.3635C29.8372 23.6937 29.9274 24.0577 29.9274 24.4546C29.9274 25.7547 28.9596 26.7017 27.9081 27.265C26.8147 27.8508 25.373 28.1825 23.8352 28.1825C22.2975 28.1825 20.8557 27.8508 19.7623 27.265C18.7108 26.7017 17.7431 25.7547 17.7431 24.4546C17.7431 24.0577 17.8333 23.6937 17.9885 23.3635C17.8333 23.0332 17.7431 22.6692 17.7431 22.2723C17.7431 20.9722 18.7108 20.0252 19.7623 19.4619ZM23.8352 26.0003C24.9766 26.0003 26.0652 25.8175 26.9976 25.4837L26.9637 25.5021C26.2141 25.9036 25.1098 26.1825 23.8352 26.1825C22.5606 26.1825 21.4563 25.9036 20.7067 25.5021L20.6728 25.4837C21.6052 25.8175 22.6938 26.0003 23.8352 26.0003ZM19.7431 8.19062C19.7431 7.98412 19.9153 7.56717 20.7068 7.14316C21.4563 6.7416 22.5607 6.46268 23.8352 6.46268C25.1098 6.46268 26.2141 6.7416 26.9637 7.14316C27.7552 7.56717 27.9274 7.98412 27.9274 8.19062C27.9274 8.39712 27.7552 8.81406 26.9637 9.23808C26.2141 9.63964 25.1098 9.91855 23.8352 9.91855C22.5607 9.91855 21.4563 9.63964 20.7068 9.23808C19.9153 8.81406 19.7431 8.39712 19.7431 8.19062ZM23.8352 4.46268C22.2975 4.46268 20.8557 4.79444 19.7623 5.3802C18.7108 5.9435 17.7431 6.89052 17.7431 8.19062C17.7431 8.58754 17.8333 8.95155 17.9885 9.28178C17.8333 9.61201 17.7431 9.97603 17.7431 10.373C17.7431 11.6731 18.7108 12.6201 19.7623 13.1834C20.8557 13.7691 22.2975 14.1009 23.8352 14.1009C25.373 14.1009 26.8147 13.7691 27.9081 13.1834C28.9596 12.6201 29.9274 11.6731 29.9274 10.373C29.9274 9.97604 29.8372 9.61203 29.6819 9.2818C29.8372 8.95156 29.9274 8.58755 29.9274 8.19062C29.9274 6.89052 28.9596 5.9435 27.9081 5.3802C26.8147 4.79444 25.373 4.46268 23.8352 4.46268ZM26.9978 11.4019C26.0653 11.7357 24.9767 11.9186 23.8352 11.9186C22.6937 11.9186 21.6051 11.7357 20.6726 11.4019L20.7067 11.4204C21.4563 11.822 22.5606 12.1009 23.8352 12.1009C25.1098 12.1009 26.2141 11.822 26.9637 11.4204L26.9978 11.4019ZM32.5353 13.9023C31.7438 14.3263 31.5717 14.7432 31.5717 14.9497C31.5717 15.1562 31.7438 15.5732 32.5353 15.9972C33.2849 16.3988 34.3892 16.6777 35.6638 16.6777C36.9384 16.6777 38.0427 16.3988 38.7923 15.9972C39.5838 15.5732 39.7559 15.1562 39.7559 14.9497C39.7559 14.7432 39.5838 14.3263 38.7923 13.9023C38.0427 13.5007 36.9384 13.2218 35.6638 13.2218C34.3892 13.2218 33.2849 13.5007 32.5353 13.9023ZM31.5909 12.1393C32.6843 11.5536 34.1261 11.2218 35.6638 11.2218C37.2015 11.2218 38.6433 11.5536 39.7367 12.1393C40.7882 12.7026 41.7559 13.6496 41.7559 14.9497C41.7559 15.3466 41.6657 15.7106 41.5105 16.0409C41.6657 16.3711 41.7559 16.7351 41.7559 17.132C41.7559 18.4321 40.7882 19.3791 39.7367 19.9424C38.6433 20.5281 37.2015 20.8599 35.6638 20.8599C34.1261 20.8599 32.6843 20.5281 31.5909 19.9424C30.5394 19.3791 29.5717 18.4321 29.5717 17.132C29.5717 16.7351 29.6618 16.3711 29.8171 16.0409C29.6618 15.7106 29.5717 15.3466 29.5717 14.9497C29.5717 13.6496 30.5394 12.7026 31.5909 12.1393ZM35.6638 18.6777C36.8051 18.6777 37.8935 18.4949 38.8258 18.1612L38.7923 18.1794C38.0427 18.581 36.9384 18.8599 35.6638 18.8599C34.3892 18.8599 33.2849 18.581 32.5353 18.1794L32.5017 18.1612C33.4341 18.4949 34.5225 18.6777 35.6638 18.6777Z" fill="#D9D9D9"/>
</svg>
