<svg width="48" height="54" viewBox="0 0 48 54" fill="none" xmlns="http://www.w3.org/2000/svg">
<path fill-rule="evenodd" clip-rule="evenodd" d="M25.9366 2.74673C24.6732 2.02818 23.1217 2.03124 21.8612 2.75478L4.02235 12.9948C2.75398 13.7229 1.97379 15.0692 1.97379 16.5248V36.7875C1.97379 38.2331 2.74336 39.5717 3.99794 40.3034L21.837 50.7073C23.1098 51.4496 24.6853 51.4527 25.9611 50.7155L43.9879 40.2981C45.2505 39.5685 46.0262 38.2254 46.0262 36.774V16.5382C46.0262 15.0768 45.2399 13.7261 43.9636 13.0001L25.9366 2.74673ZM20.8779 1.04505C22.7448 -0.0266176 25.042 -0.0311502 26.9131 1.03313L44.9401 11.2865C46.8313 12.3622 48 14.3662 48 16.5382V36.774C48 38.9312 46.8471 40.9239 44.9762 42.005L26.9494 52.4224C25.0598 53.5143 22.7271 53.5097 20.8419 52.4102L3.00284 42.0063C1.1438 40.9221 0 38.936 0 36.7875V16.5248C0 14.3613 1.15958 12.3639 3.03901 11.2851L20.8779 1.04505Z" fill="#D9D9D9"/>
<path fill-rule="evenodd" clip-rule="evenodd" d="M32.6969 25.0555C32.4203 25.724 32.4005 26.3593 32.469 26.6749C32.5285 26.9495 32.7342 27.2769 33.0494 27.5173C33.3629 27.7564 33.6732 27.828 33.9018 27.7867C34.332 27.7089 34.7843 27.5667 35.2352 27.3541C35.5086 27.2252 35.9161 26.8127 36.2019 26.1469C36.4779 25.5036 36.5641 24.7941 36.3976 24.2006C36.2166 23.5558 35.2563 22.9487 34.2117 23.4413C33.4383 23.806 32.9628 24.4128 32.6969 25.0555ZM30.873 24.3008C31.2918 23.2887 32.0762 22.2661 33.3698 21.6561C35.4257 20.6866 37.7597 21.7494 38.2979 23.6672C38.6151 24.7973 38.4227 25.9769 38.0157 26.9253C37.7526 27.5384 37.3655 28.1322 36.884 28.5814L39.5096 34.5057C39.9184 35.4279 39.5659 36.51 38.6924 37.0146L33.6984 39.8993C32.1872 40.7722 30.3699 39.3984 30.7975 37.7065L32.8423 29.6166C32.4756 29.4934 32.14 29.306 31.8523 29.0867C31.2245 28.6078 30.714 27.8953 30.54 27.0933C30.375 26.3323 30.4649 25.2873 30.873 24.3008ZM34.8865 29.5835L32.7111 38.1901L37.7051 35.3054L35.1362 29.5092C35.053 29.5356 34.9697 29.5604 34.8865 29.5835Z" fill="#D9D9D9"/>
</svg>
