<svg width="48" height="46" viewBox="0 0 48 46" fill="none" xmlns="http://www.w3.org/2000/svg">
<path d="M19.7424 29.2856C20.0323 29.3705 20.3032 29.1048 20.224 28.8133L19.4769 26.0619C19.4167 25.8402 19.1775 25.7196 18.9634 25.803L15.2514 27.2499C14.9076 27.3839 14.9291 27.8775 15.2832 27.9811L19.7424 29.2856Z" fill="#D9D9D9"/>
<path d="M28.3218 29.2856C28.0319 29.3705 27.761 29.1048 27.8402 28.8133L28.5874 26.0619C28.6476 25.8402 28.8867 25.7196 29.1008 25.803L32.8128 27.2499C33.1567 27.3839 33.1352 27.8775 32.781 27.9811L28.3218 29.2856Z" fill="#D9D9D9"/>
<path d="M27.0632 34.6477C27.0336 34.4598 26.8716 34.3213 26.6814 34.3213H21.6005C21.4085 34.3213 21.2456 34.4623 21.218 34.6523L20.5937 38.9442C20.5455 39.2759 20.9133 39.5076 21.1916 39.3209L21.9702 38.7985C22.0339 38.7558 22.1089 38.733 22.1856 38.733H26.035C26.1047 38.733 26.173 38.7518 26.2328 38.7874L27.1612 39.3403C27.4426 39.5078 27.7918 39.2715 27.7408 38.9479L27.0632 34.6477Z" fill="#D9D9D9"/>
<path fill-rule="evenodd" clip-rule="evenodd" d="M1.97056 0.298828C2.02261 0.0759539 2.25581 -0.0531623 2.47232 0.0210223L18.4466 5.49435C18.487 5.50817 18.5293 5.51522 18.5719 5.51522H29.4217C29.4648 5.51522 29.5077 5.50799 29.5485 5.49384L45.3029 0.0243176C45.516 -0.0496776 45.747 0.0738114 45.8038 0.292154L47.9875 8.68299C48.0048 8.74925 48.0041 8.81891 47.9856 8.88483L44.1501 22.5487C44.1285 22.6256 44.1313 22.7074 44.1581 22.7827L47.5634 32.3625C47.5897 32.4365 47.5928 32.5169 47.5723 32.5928L44.7382 43.0819C44.683 43.2861 44.474 43.4081 44.2691 43.3556L34.3195 40.8075C34.206 40.7785 34.0853 40.8025 33.9916 40.8729L28.3712 45.0914C28.3042 45.1416 28.2228 45.1688 28.1391 45.1688H20.2868C20.2066 45.1688 20.1283 45.1438 20.0629 45.0973L14.1005 40.8622C14.0076 40.7963 13.8904 40.7746 13.7801 40.8031L3.88558 43.3543C3.6826 43.4066 3.47488 43.2877 3.41733 43.0861L0.426413 32.6106C0.405256 32.5365 0.406728 32.4577 0.430641 32.3845L3.56624 22.7784C3.58919 22.7081 3.59149 22.6327 3.57286 22.5611L0.0124606 8.87955C-0.00332346 8.8189 -0.00412414 8.75531 0.0101274 8.69428L1.97056 0.298828ZM5.58554 23.4297C5.46525 23.4666 5.37045 23.5597 5.3314 23.6793L2.93179 31.0307C2.85022 31.2806 3.03644 31.5372 3.29929 31.5372H16.2221C16.4644 31.5372 16.647 31.7575 16.602 31.9956L15.2744 39.0187C15.2463 39.1671 15.3073 39.3182 15.4304 39.4057L20.6874 43.1397C20.7528 43.1862 20.831 43.2112 20.9113 43.2112H27.4862C27.5699 43.2112 27.6513 43.184 27.7182 43.1338L32.6742 39.414C32.79 39.3271 32.8475 39.1827 32.8232 39.04L31.6236 31.9886C31.5834 31.7526 31.7653 31.5372 32.0047 31.5372H44.6447C44.9118 31.5372 45.0984 31.2728 45.009 31.0212L42.3943 23.6655C42.354 23.552 42.2631 23.4639 42.1484 23.427L32.2214 20.2348C32.1429 20.2095 32.0745 20.1598 32.0262 20.0929L27.894 14.3656C27.7744 14.1998 27.8045 13.9695 27.9628 13.8401L38.4419 5.27193C38.7764 4.99846 38.4786 4.46576 38.0704 4.60745L29.8786 7.45143C29.8378 7.46559 29.795 7.47282 29.7518 7.47282H18.2459C18.2033 7.47282 18.1609 7.46576 18.1206 7.45194L10.0681 4.69291C9.6563 4.5518 9.36167 5.09343 9.70388 5.36252L20.481 13.8365C20.6471 13.9672 20.6776 14.2071 20.5492 14.3751L16.17 20.1076C16.121 20.1717 16.0532 20.2189 15.9761 20.2425L5.58554 23.4297ZM3.85564 3.25434C3.63327 3.07948 3.30456 3.19485 3.24024 3.47032L2.02631 8.66889C2.01206 8.72992 2.01286 8.7935 2.02865 8.85416L5.20913 21.0758C5.26454 21.2887 5.48626 21.4125 5.69661 21.348L14.8017 18.5552C14.8788 18.5315 14.9466 18.4843 14.9956 18.4203L17.8217 14.7207C17.9501 14.5527 17.9197 14.3128 17.7535 14.1822L3.85564 3.25434ZM44.6074 3.46736C44.5364 3.19458 44.2067 3.08703 43.9885 3.26544L30.6285 14.1891C30.4703 14.3185 30.4401 14.5488 30.5597 14.7146L33.2376 18.4261C33.2858 18.493 33.3542 18.5427 33.4327 18.568L42.0407 21.336C42.2494 21.4031 42.472 21.2835 42.5313 21.0725L45.9578 8.86551C45.9763 8.79959 45.977 8.72993 45.9597 8.66367L44.6074 3.46736ZM45.1691 33.9822C45.2355 33.7365 45.0504 33.4948 44.7959 33.4948H34.3235C34.0841 33.4948 33.9022 33.7102 33.9424 33.9462L34.7441 38.6589C34.7697 38.8094 34.8815 38.9307 35.0293 38.9685L42.8832 40.9799C43.0881 41.0324 43.2971 40.9104 43.3523 40.7062L45.1691 33.9822ZM13.066 38.9655C13.2111 38.9281 13.3215 38.8102 13.3494 38.663L14.2397 33.9532C14.2847 33.7151 14.1021 33.4948 13.8598 33.4948H3.2271C2.9703 33.4948 2.78487 33.7406 2.85538 33.9875L4.77593 40.7142C4.83348 40.9157 5.0412 41.0347 5.24418 40.9824L13.066 38.9655Z" fill="#D9D9D9"/>
</svg>
