<svg width="57" height="60" viewBox="0 0 57 60" fill="none" xmlns="http://www.w3.org/2000/svg">
<path d="M6.16984 13.359L6.16983 13.359C6.1457 13.388 6.1239 13.4164 6.10723 13.4401L6.08196 13.476L6.05464 13.5103C5.9814 13.6024 5.90912 13.7036 5.83368 13.8184L5.83365 13.8185C5.67901 14.0537 5.54616 14.2879 5.43684 14.526L5.43354 14.5332L5.43352 14.5331C5.37425 14.6604 5.32361 14.7803 5.28181 14.8954L5.2793 14.9023L5.27672 14.9092C5.16689 15.2025 5.08242 15.479 5.02973 15.7427L6.16984 13.359ZM6.16984 13.359L6.17376 13.3543M6.16984 13.359L6.17376 13.3543M6.17376 13.3543C7.15795 12.1647 8.61839 11.4211 10.2462 11.4211C12.8006 11.4211 14.9626 13.262 15.463 15.7443C15.5339 16.101 15.5712 16.4682 15.5712 16.8472C15.5712 17.4085 15.4841 17.9526 15.328 18.4666C15.2221 18.809 15.0879 19.1339 14.9283 19.4321C14.8351 19.6019 14.7466 19.7528 14.6578 19.8883C14.4651 20.1756 14.2468 20.444 14.0072 20.687C13.8809 20.8151 13.754 20.9331 13.6306 21.0358L13.6306 21.0357L13.6255 21.04C13.1007 21.4807 12.489 21.8196 11.8246 22.0295L11.8246 22.0295L11.8195 22.0312C11.3284 22.1883 10.8001 22.2733 10.2462 22.2733C9.70032 22.2733 9.17054 22.1864 8.6692 22.03C8.08492 21.8418 7.5358 21.5476 7.04445 21.1696C6.83325 21.0071 6.64792 20.8477 6.48962 20.6871C6.24434 20.4384 6.02773 20.1739 5.84003 19.89L5.8344 19.8815L5.82866 19.873C5.73442 19.7346 5.64814 19.5917 5.57291 19.4487L5.57294 19.4486M6.17376 13.3543L5.57294 19.4486M5.57294 19.4486L5.5682 19.4398M5.57294 19.4486L5.5682 19.4398M5.5682 19.4398C5.15743 18.6715 4.92126 17.7904 4.92126 16.8472C4.92126 16.4678 4.95857 16.1003 5.02961 15.7433L5.5682 19.4398Z" stroke="#D9D9D9" stroke-width="3"/>
<path d="M10.5016 45.9882C10.5016 46.4422 10.5409 46.8864 10.6156 47.3178H2.18484C1.95578 47.3178 1.74891 47.2025 1.6227 47.0126L1.61541 47.0016L1.60835 46.9914C1.60796 46.9908 1.60423 46.985 1.59714 46.9724C1.58809 46.9563 1.57624 46.9338 1.56021 46.9012L1.55937 46.8995C1.55875 46.8983 1.55482 46.8901 1.54933 46.8734L1.54419 46.8577L1.53871 46.8422C1.51486 46.7748 1.5 46.6958 1.5 46.6064V37.5996C1.5 37.1285 1.5398 36.6682 1.61619 36.2138C1.69264 35.7678 1.80531 35.3296 1.94982 34.9119L1.94986 34.9119L1.95349 34.9012C2.04399 34.633 2.15349 34.3671 2.27997 34.103L2.27999 34.103L2.28302 34.0966C2.66905 33.2809 3.19342 32.5357 3.82382 31.8964L3.82393 31.8963C4.0987 31.6176 4.38231 31.367 4.68254 31.1414L4.68256 31.1414L4.69 31.1358C4.98451 30.9117 5.30702 30.7036 5.64873 30.5129C5.87781 30.3896 6.10978 30.2761 6.3449 30.1749L6.3449 30.1749L6.34839 30.1734C7.2851 29.7674 8.3226 29.5441 9.41755 29.5441H10.7482C10.9379 29.5441 11.1218 29.5512 11.3043 29.5655L11.3212 29.5669C10.7904 31.2285 10.5016 32.9987 10.5016 34.8351V45.9882Z" fill="#D9D9D9" stroke="#D9D9D9" stroke-width="3"/>
<path d="M47.6671 22.2392L47.6671 22.2392C48.055 22.1955 48.434 22.1075 48.7971 21.9837L48.8011 21.9823C48.9598 21.9287 49.1275 21.8582 49.3242 21.7683C49.7261 21.5787 50.1044 21.3338 50.4507 21.044C50.7516 20.7906 51.0246 20.5095 51.2611 20.2058L47.6671 22.2392ZM47.6671 22.2392L47.6558 22.2405M47.6671 22.2392L47.6558 22.2405M47.6558 22.2405C47.4705 22.2629 47.2776 22.2733 47.0709 22.2733C46.5267 22.2733 45.9928 22.1899 45.4739 22.0351M47.6558 22.2405L45.4739 22.0351M45.4739 22.0351C44.816 21.8257 44.2099 21.4898 43.6891 21.0538C43.5447 20.9296 43.4165 20.8124 43.3016 20.696C43.0565 20.4473 42.8398 20.1827 42.6517 19.8984L42.6461 19.8899L42.6403 19.8814C42.5461 19.7431 42.46 19.6005 42.3853 19.4582L42.3853 19.4582L42.3788 19.446C42.216 19.1428 42.0818 18.8204 41.9768 18.4769L41.9769 18.4769L41.9746 18.4696C41.8181 17.9664 41.7333 17.4244 41.7333 16.8559C41.7333 16.4773 41.7703 16.1107 41.841 15.7548C42.0302 14.8295 42.4512 13.9867 43.0392 13.2984L43.0398 13.2977C43.231 13.0736 43.4457 12.8622 43.6815 12.6644C44.0304 12.3725 44.4113 12.1262 44.8159 11.936L44.8162 11.9359C45.2356 11.7388 45.6718 11.595 46.1176 11.5157C46.4349 11.4598 46.7506 11.4298 47.0666 11.4298C47.2456 11.4298 47.4307 11.4396 47.6151 11.457C48.1541 11.5156 48.664 11.6514 49.1407 11.8542L49.1408 11.8543C49.613 12.0552 50.0547 12.329 50.4542 12.6621L50.4557 12.6633C50.7574 12.9142 51.0262 13.1914 51.2547 13.4891L45.4739 22.0351ZM51.8706 19.2132L51.8721 19.2101C52.2107 18.4996 52.4002 17.7011 52.4002 16.8516C52.4002 16.002 52.2107 15.2036 51.8721 14.4931L51.8706 14.49C51.7053 14.1411 51.4964 13.8046 51.2551 13.4897L51.8706 19.2132ZM51.8706 19.2132C51.7024 19.5684 51.4978 19.9012 51.2615 20.2052L51.8706 19.2132Z" stroke="#D9D9D9" stroke-width="3"/>
<path d="M46.3876 47.331C46.4623 46.8996 46.5016 46.4555 46.5016 46.0014V34.8482C46.5016 33.0067 46.2122 31.2362 45.6804 29.5742C45.8711 29.56 46.0613 29.5526 46.2506 29.5526H47.5813C48.1642 29.5526 48.725 29.615 49.2654 29.7348L49.2654 29.7348L49.2765 29.7372C49.5478 29.7952 49.8098 29.8671 50.063 29.9526L50.063 29.9527L50.0747 29.9565C50.5877 30.1251 51.0821 30.3534 51.5501 30.6291L51.5501 30.6292L51.561 30.6354C51.7887 30.7671 52.0112 30.9138 52.2237 31.0718L52.2237 31.0718L52.23 31.0764C52.6626 31.3945 53.0666 31.7605 53.4264 32.162L53.4264 32.162L53.432 32.1681C53.6719 32.4329 53.8949 32.7202 54.1038 33.0289L54.1045 33.03C54.3136 33.3385 54.5012 33.6576 54.6617 33.9827C54.6962 34.0529 54.7324 34.1296 54.7728 34.216C54.9468 34.603 55.0946 35.0062 55.2095 35.4169C55.2583 35.5964 55.3015 35.7727 55.3366 35.9432L55.3386 35.9529L55.3407 35.9624C55.3642 36.0693 55.3834 36.187 55.4104 36.356L55.4106 36.3571C55.4431 36.5598 55.4673 36.7583 55.481 36.954C55.4957 37.1685 55.5025 37.3726 55.4991 37.5739L55.4988 37.5867V37.5996V46.6196C55.4988 46.7093 55.484 46.7875 55.4605 46.8539L55.4604 46.8539L55.4571 46.8634C55.4503 46.8831 55.4414 46.906 55.4296 46.9328C55.4183 46.9551 55.4094 46.9717 55.4023 46.9844C55.395 46.9974 55.3912 47.0033 55.3908 47.0039L55.3811 47.0178L55.3715 47.0325C55.3547 47.0581 55.3292 47.0905 55.2926 47.1277L55.2911 47.1291C55.1629 47.2591 54.9966 47.331 54.8184 47.331H46.3876Z" fill="#D9D9D9" stroke="#D9D9D9" stroke-width="3"/>
<path d="M30.8053 15.6436L30.8086 15.6425C31.2521 15.5033 31.6754 15.3211 32.0789 15.0985L30.8053 15.6436ZM30.8053 15.6436C30.3696 15.7815 29.9098 15.8782 29.4333 15.9291C29.1808 15.9517 28.9352 15.9655 28.6997 15.9655C28.2107 15.9655 27.7341 15.9152 27.2725 15.8187C26.805 15.721 26.3681 15.5825 25.9605 15.4L25.9492 15.3949L25.9377 15.39C25.3012 15.1175 24.7139 14.7552 24.1855 14.3128L24.1855 14.3128L24.1792 14.3076C24.0131 14.1701 23.8442 14.0135 23.6812 13.8482L23.6812 13.8482L23.6718 13.8388C23.4921 13.6598 23.3132 13.4463 23.1119 13.189L23.1108 13.1877C22.861 12.8691 22.6387 12.5322 22.4498 12.1813C21.9027 11.1573 21.5891 9.98098 21.5891 8.72837C21.5891 7.22729 22.0413 5.83454 22.8101 4.67941L22.8113 4.67764C23.0657 4.29419 23.3564 3.93789 23.6811 3.60859L23.6812 3.60854C24.0059 3.27916 24.3567 2.98492 24.7334 2.72782L24.7334 2.72783L24.7389 2.7241C24.9198 2.59948 25.1128 2.48158 25.3206 2.36695L24.6058 1.07101L25.3206 2.36695C25.724 2.14443 26.1468 1.96232 26.5899 1.82317C27.2568 1.61458 27.9642 1.5 28.6997 1.5C29.2059 1.5 29.6974 1.5537 30.172 1.6541C30.8018 1.78995 31.4024 2.01178 31.9632 2.30692C32.2416 2.4535 32.5065 2.61628 32.7555 2.79458C32.9141 2.9109 33.0277 2.99479 33.1295 3.07984L33.1388 3.08756L33.1481 3.09514C33.3876 3.2887 33.6167 3.50277 33.835 3.73506L33.8351 3.73508C34.0521 3.96598 34.2545 4.21095 34.4388 4.46584C34.6287 4.73265 34.7978 5.00189 34.942 5.27375L34.942 5.27376L34.9443 5.27822C35.492 6.30261 35.8059 7.47954 35.8059 8.73273C35.8059 8.95042 35.7955 9.16917 35.7768 9.39026L35.7767 9.39183M30.8053 15.6436L35.7767 9.39183M35.7767 9.39183C35.7596 9.59728 35.7315 9.80669 35.6941 10.0276C35.6249 10.4342 35.5162 10.8322 35.3738 11.2323M35.7767 9.39183L35.3738 11.2323M33.2119 14.3232C33.5648 14.0267 33.8894 13.6977 34.1816 13.3398L33.2119 14.3232ZM33.2119 14.3232C32.8639 14.6156 32.4855 14.8742 32.0789 15.0985L33.2119 14.3232ZM35.3738 11.2323C35.0982 12.0028 34.6905 12.7154 34.1818 13.3396L35.3738 11.2323Z" stroke="#D9D9D9" stroke-width="3"/>
<path fill-rule="evenodd" clip-rule="evenodd" d="M29.7254 22.7732C28.9108 22.3094 27.9102 22.3114 27.0975 22.7784L14.3202 30.12C13.5025 30.5899 13 31.4583 13 32.3967V46.9242C13 47.8561 13.4956 48.7196 14.3045 49.1918L27.0818 56.6509C27.9025 57.13 28.9186 57.1321 29.7412 56.6562L42.6531 49.1874C43.4671 48.7166 43.9667 47.8502 43.9667 46.9145V32.4063C43.9667 31.4642 43.4602 30.5929 42.6374 30.1245L29.7254 22.7732ZM26.1011 21.0443C27.5283 20.2242 29.2844 20.2207 30.7149 21.0352L43.6269 28.3864C45.0728 29.2096 45.9667 30.7434 45.9667 32.4063V46.9145C45.9667 48.5661 45.0848 50.0913 43.6545 50.9187L30.7426 58.3875C29.298 59.2231 27.5148 59.2195 26.0735 58.3782L13.2962 50.919C11.8748 50.0893 11 48.5691 11 46.9242V32.3967C11 30.7404 11.8869 29.2115 13.3238 28.3859L26.1011 21.0443Z" fill="#241F2A"/>
<path d="M15.5837 48.4676L26.8236 54.9919C27.8185 55.5694 29.0498 55.5719 30.047 54.9983L41.4053 48.4655C42.3924 47.8977 43 46.8518 43 45.7203V33.0304C43 31.8911 42.3841 30.8392 41.3862 30.2743L30.0278 23.8443C29.0404 23.2853 27.8279 23.2877 26.8426 23.8506L15.6028 30.2722C14.6111 30.8387 14 31.8872 14 33.022V45.7288C14 46.8557 14.6028 47.8982 15.5837 48.4676Z" stroke="#D9D9D9" stroke-width="2.2"/>
</svg>
