<svg width="49" height="54" viewBox="0 0 49 54" fill="none" xmlns="http://www.w3.org/2000/svg">
<path fill-rule="evenodd" clip-rule="evenodd" d="M21.9548 2.78415C23.2169 2.05897 24.7704 2.0559 26.0354 2.77609L44.1278 13.0767C45.4057 13.8043 46.1931 15.1581 46.1931 16.6228V36.9517C46.1931 38.4065 45.4164 39.7525 44.1522 40.4838L26.0599 50.9492C24.7825 51.6881 23.2049 51.6849 21.9305 50.9409L4.02677 40.4891C2.77056 39.7558 2 38.4141 2 36.9653V16.6093C2 15.1504 2.7812 13.801 4.05121 13.0713L21.9548 2.78415ZM27.025 1.03804C25.1441 -0.0328124 22.835 -0.0282519 20.9584 1.05003L3.05481 11.3372C1.16562 12.4227 0 14.4325 0 16.6093V36.9653C0 39.1271 1.14975 41.1254 3.01845 42.2163L20.9222 52.6682C22.8172 53.7744 25.162 53.7791 27.0614 52.6804L45.1536 42.215C47.0342 41.1272 48.1931 39.1223 48.1931 36.9517V16.6228C48.1931 14.4373 47.0183 12.4209 45.1173 11.3387L27.025 1.03804ZM15.5354 15.9937L12.422 17.1057C13.0056 16.4244 13.8471 15.7639 14.9637 15.1657C17.3464 13.8892 20.7199 13.0634 24.5115 13.0634C28.303 13.0634 31.6766 13.8892 34.0593 15.1657C35.8404 16.1199 36.9215 17.2328 37.3727 18.3352L29.1874 21.894C28.5843 22.1562 28.308 22.8577 28.5702 23.4608C28.8324 24.0638 29.5339 24.3402 30.137 24.078L37.2583 20.9817C36.7523 22.0005 35.7045 23.0173 34.0593 23.8987C31.6766 25.1751 28.303 26.001 24.5115 26.001C20.7199 26.001 17.3464 25.1751 14.9637 23.8987C14.2514 23.5171 13.651 23.1101 13.1582 22.6886L16.6176 21.4531L23.5489 23.2771C23.9605 23.3854 24.3959 23.3585 24.791 23.2005L30.5013 20.9164C31.1119 20.6722 31.4089 19.9792 31.1646 19.3686C30.9204 18.758 30.2274 18.461 29.6168 18.7053L24.0283 20.9407L17.1048 19.1188C16.7179 19.0169 16.3092 19.0344 15.9323 19.169L11.6393 20.7022C11.5432 20.4621 11.477 20.2225 11.4399 19.9852L16.2207 18.2778L23.1359 20.0976C23.5722 20.2124 24.0346 20.1751 24.4469 19.9919L31.3365 16.9298C31.9374 16.6628 32.2081 15.9591 31.941 15.3581C31.6739 14.7572 30.9702 14.4866 30.3693 14.7536L23.6071 17.759L16.7079 15.9435C16.321 15.8416 15.9122 15.8592 15.5354 15.9937ZM35.1838 13.0665C37.6384 14.3814 39.5575 16.3064 39.9332 18.6796C39.9718 18.8098 39.987 18.9425 39.9808 19.0728C39.9935 19.2242 40 19.3774 40 19.5322C40 20.6451 39.6643 21.6712 39.0845 22.596C39.6643 23.5208 40 24.5469 40 25.6598C40 26.856 39.6122 27.952 38.9502 28.9296C39.6122 29.9072 40 31.0033 40 32.1995C40 34.9657 37.926 37.1962 35.1838 38.6652C32.3917 40.161 28.6164 41.0497 24.5115 41.0497C20.4066 41.0497 16.6312 40.161 13.8391 38.6652C11.0969 37.1962 9.02295 34.9657 9.02295 32.1995C9.02295 31.0033 9.41079 29.9072 10.0728 28.9296C9.41079 27.952 9.02295 26.856 9.02295 25.6598C9.02295 24.5469 9.35863 23.5208 9.93846 22.596C9.35863 21.6712 9.02295 20.6451 9.02295 19.5322C9.02295 16.766 11.0969 14.5355 13.8391 13.0665C16.6312 11.5707 20.4066 10.6819 24.5115 10.6819C28.6164 10.6819 32.3917 11.5707 35.1838 13.0665ZM37.3922 24.5115C36.7376 25.0689 35.9895 25.5663 35.1838 25.9979C32.3917 27.4937 28.6164 28.3824 24.5115 28.3824C20.4066 28.3824 16.6312 27.4937 13.8391 25.9979C13.0334 25.5663 12.2854 25.0689 11.6307 24.5115C11.4788 24.8983 11.4044 25.2835 11.4044 25.6598C11.4044 27.1238 12.5311 28.7231 14.9637 30.0263C17.3464 31.3027 20.7199 32.1286 24.5115 32.1286C28.303 32.1286 31.6766 31.3027 34.0593 30.0263C36.4919 28.7231 37.6185 27.1238 37.6185 25.6598C37.6185 25.2835 37.5441 24.8983 37.3922 24.5115ZM11.4044 32.1995C11.4044 31.7259 11.5223 31.2382 11.7641 30.7509C12.3863 31.2632 13.0876 31.7229 13.8391 32.1255C16.6312 33.6213 20.4066 34.5101 24.5115 34.5101C28.6164 34.5101 32.3917 33.6213 35.1838 32.1255C35.9353 31.7229 36.6366 31.2632 37.2588 30.7509C37.5007 31.2381 37.6185 31.7259 37.6185 32.1995C37.6185 33.6635 36.4919 35.2628 34.0593 36.566C31.6766 37.8424 28.303 38.6683 24.5115 38.6683C20.7199 38.6683 17.3464 37.8424 14.9637 36.566C12.5311 35.2628 11.4044 33.6635 11.4044 32.1995Z" fill="#D9D9D9"/>
</svg>
