<svg width="49" height="49" viewBox="0 0 49 49" fill="none" xmlns="http://www.w3.org/2000/svg">
<path d="M11 30.2381C11 28.5812 12.3431 27.2381 14 27.2381H19C20.6569 27.2381 22 28.5812 22 30.2381V35.2381C22 36.895 20.6569 38.2381 19 38.2381H14C12.3431 38.2381 11 36.895 11 35.2381V30.2381Z" fill="#D9D9D9"/>
<path d="M28.5 13.2381C28.5 12.4097 29.1716 11.7381 30 11.7381H35C35.8284 11.7381 36.5 12.4097 36.5 13.2381V18.2381C36.5 19.0665 35.8284 19.7381 35 19.7381H30C29.1716 19.7381 28.5 19.0665 28.5 18.2381V13.2381Z" stroke="#D9D9D9" stroke-width="3"/>
<path d="M36.5 34.4111L32.4782 36.698L28.5 34.415V30.024L32.4781 27.7771L36.5 30.028V34.4111ZM36.6537 34.3237L36.6533 34.3239L36.6537 34.3237ZM32.6104 36.7739C32.6105 36.7739 32.6106 36.774 32.6107 36.774L32.6104 36.7739Z" stroke="#D9D9D9" stroke-width="3"/>
<path d="M11.6007 18.6284L15.8641 21.075C16.2415 21.2916 16.7085 21.2925 17.0868 21.0774L21.3951 18.6276C21.7695 18.4147 22 18.0225 22 17.5982V12.8394C22 12.4122 21.7664 12.0178 21.3879 11.8059L17.0795 9.39469C16.705 9.18506 16.2451 9.18596 15.8713 9.39704L11.608 11.8051C11.2318 12.0176 11 12.4108 11 12.8363V17.6014C11 18.024 11.2286 18.4149 11.6007 18.6284Z" fill="#D9D9D9"/>
<rect x="1" y="1.2381" width="47" height="46" rx="11" stroke="#D9D9D9" stroke-width="2"/>
</svg>
