<svg width="37" height="31" viewBox="0 0 37 31" fill="none" xmlns="http://www.w3.org/2000/svg">
<path d="M12.9314 6.09908V29.3144C12.9314 29.6432 12.8461 29.9252 12.6819 30.1539C12.5164 30.3814 12.2708 30.5013 11.9474 30.5013C11.7205 30.5013 11.4999 30.4469 11.2868 30.3419L1.95444 25.7311C1.67115 25.6013 1.43674 25.376 1.24245 25.0695C1.04816 24.7616 0.952888 24.4538 0.952888 24.1495V1.58588C0.952888 1.3225 1.01807 1.09746 1.1547 0.91322C1.28632 0.728983 1.48061 0.63501 1.73758 0.63501C1.92435 0.63501 2.21767 0.732692 2.6213 0.931769L12.8762 5.99769C12.9088 6.04097 12.9314 6.07312 12.9314 6.09908Z" fill="#00E28D"/>
<path d="M14.2128 8.09766L24.9252 25.2372L14.2128 19.972V8.09766Z" fill="#00E28D"/>
<path d="M36.9057 8.45459V29.3142C36.9057 29.6431 36.8105 29.9114 36.6237 30.1129C36.437 30.3194 36.1836 30.421 35.8603 30.421C35.5382 30.421 35.2259 30.3344 34.9176 30.1637L26.0728 25.8111L36.9057 8.45459Z" fill="#00E28D"/>
<path d="M36.8455 6.07843C36.8455 6.118 35.1283 8.88641 31.6975 14.38C28.2678 19.8773 26.2572 23.0909 25.6704 24.028L17.8448 11.4817L24.3456 1.05222C24.5725 0.683758 24.921 0.498291 25.3871 0.498291C25.5739 0.498291 25.747 0.539092 25.9087 0.618227L36.7642 5.96343C36.8157 5.98446 36.8455 6.02403 36.8455 6.07843Z" fill="#00E28D"/>
</svg>
