<svg width="36" height="33" viewBox="0 0 36 33" fill="none" xmlns="http://www.w3.org/2000/svg">
<path fill-rule="evenodd" clip-rule="evenodd" d="M8.91972 18.9763L0.634958 15.8511C-0.206694 15.5327 -0.213278 14.3319 0.62508 14.0048L34.6245 0.748454C35.3454 0.467005 36.0893 1.10488 35.9314 1.8699L29.8303 31.533C29.6866 32.2338 28.8745 32.5511 28.3006 32.1294L19.972 26.018C19.4662 25.6474 18.777 25.667 18.293 26.0658L13.6744 29.8702C13.1389 30.3137 12.3313 30.067 12.1261 29.3986L8.91972 18.9763ZM27.8 7.23472L11.6089 17.3126C10.9878 17.7006 10.6959 18.458 10.8967 19.1665L12.647 25.3835C12.771 25.8235 13.4041 25.779 13.4645 25.3236L13.9198 21.9147C14.0054 21.2725 14.3083 20.6813 14.778 20.239L28.1401 7.68568C28.3902 7.45096 28.0907 7.05324 27.8 7.23472Z" fill="#00E28D"/>
</svg>
