<svg width="40" height="33" viewBox="0 0 40 33" fill="none" xmlns="http://www.w3.org/2000/svg">
<path d="M39.1417 4.60805C37.7337 5.23428 36.2243 5.65799 34.6372 5.84803C36.2574 4.87495 37.4977 3.33067 38.0857 1.49769C36.5659 2.39913 34.8887 3.05339 33.1009 3.40752C31.67 1.87676 29.6347 0.922363 27.3767 0.922363C23.0451 0.922363 19.5324 4.44605 19.5324 8.78807C19.5324 9.40494 19.6018 10.0063 19.7353 10.5816C13.2171 10.2534 7.43817 7.12021 3.56931 2.3607C2.89327 3.52072 2.50917 4.87183 2.50917 6.31536C2.50917 9.04459 3.8944 11.4539 5.99705 12.8632C4.71123 12.8196 3.50305 12.4655 2.44396 11.8756V11.9742C2.44396 15.7845 5.14915 18.9654 8.73538 19.6893C8.07798 19.866 7.38537 19.9646 6.66895 19.9646C6.16167 19.9646 5.67198 19.9147 5.19161 19.8181C6.19065 22.9461 9.08636 25.2205 12.5173 25.2827C9.83382 27.392 6.45155 28.6455 2.77628 28.6455C2.14268 28.6455 1.51944 28.607 0.905518 28.5375C4.37683 30.7744 8.49831 32.0777 12.9283 32.0777C27.3571 32.0777 35.2449 20.0891 35.2449 9.69261L35.218 8.67383C36.7595 7.57093 38.0931 6.18556 39.1417 4.60805Z" fill="#00E28D"/>
</svg>
