<svg width="91" height="43" viewBox="0 0 91 43" fill="none" xmlns="http://www.w3.org/2000/svg">
<path d="M68.8973 0C63.8104 0 58.2648 2.60676 52.4037 7.74128C49.6231 10.1743 47.2216 12.781 45.4209 14.8664C45.4209 14.8664 45.4209 14.8664 45.4367 14.8822V14.8664C45.4367 14.8664 48.2802 17.963 51.4242 21.2807C53.1147 19.2742 55.5478 16.5411 58.3438 14.0765C63.5576 9.51075 66.954 8.54704 68.8973 8.54704C76.2123 8.54704 82.1524 14.3451 82.1524 21.4703C82.1524 28.548 76.1965 34.3461 68.8973 34.3935C68.5655 34.3935 68.1389 34.3461 67.6018 34.2355C69.7346 35.1518 72.0255 35.8154 74.2058 35.8154C87.6027 35.8154 90.2254 27.0787 90.3992 26.4468C90.7942 24.8511 90.9996 23.1765 90.9996 21.4545C90.9996 9.6371 81.0781 0 68.8973 0Z" fill="url(#paint0_linear_1583_8064)"/>
<path d="M22.1022 42.9721C27.1893 42.9721 32.7346 40.3652 38.5959 35.2307C41.3765 32.7977 43.7779 30.191 45.5787 28.1056C45.5787 28.1056 45.5787 28.1056 45.5629 28.0898V28.1056C45.5629 28.1056 42.7194 25.0091 39.5754 21.6914C37.8849 23.6978 35.452 26.4309 32.6556 28.8955C27.4421 33.4613 24.0454 34.425 22.1022 34.425C14.7874 34.4092 8.84718 28.6111 8.84718 21.486C8.84718 14.4082 14.8032 8.61015 22.1022 8.56276C22.434 8.56276 22.8605 8.61015 23.3977 8.72075C21.2649 7.80443 18.9741 7.14087 16.7939 7.14087C3.39669 7.14087 0.789927 15.8775 0.600345 16.4936C0.205381 18.1051 0 19.7639 0 21.486C0 33.3349 9.92149 42.9721 22.1022 42.9721Z" fill="url(#paint1_linear_1583_8064)"/>
<path d="M74.1736 35.6258C67.3168 35.452 60.1917 30.0489 58.7382 28.706C54.9784 25.2303 46.3046 15.8301 45.6257 15.0876C39.2745 7.96247 30.6643 0 22.1015 0H22.0857H22.0699C11.6744 0.0473956 2.9378 7.09355 0.599609 16.4937C0.773392 15.8775 4.2017 6.96716 16.7773 7.28315C23.6339 7.45694 30.7906 12.939 32.2599 14.2819C36.02 17.7576 44.6935 27.1577 45.3729 27.9002C51.7238 35.0096 60.3339 42.9722 68.8967 42.9722H68.9125H68.9283C79.3237 42.9248 88.0761 35.8786 90.3986 26.4784C90.209 27.0945 86.7648 35.926 74.1736 35.6258Z" fill="#29ABE2"/>
<defs>
<linearGradient id="paint0_linear_1583_8064" x1="57.3919" y1="2.83341" x2="87.4424" y2="33.9516" gradientUnits="userSpaceOnUse">
<stop offset="0.21" stop-color="#F15A24"/>
<stop offset="0.6841" stop-color="#FBB03B"/>
</linearGradient>
<linearGradient id="paint1_linear_1583_8064" x1="33.6076" y1="40.1385" x2="3.55704" y2="9.02042" gradientUnits="userSpaceOnUse">
<stop offset="0.21" stop-color="#ED1E79"/>
<stop offset="0.8929" stop-color="#522785"/>
</linearGradient>
</defs>
</svg>
