<svg width="61" height="62" viewBox="0 0 61 62" fill="none" xmlns="http://www.w3.org/2000/svg">
<path d="M48.961 3.14736L36.2103 22.3889C36.0287 22.666 35.952 23.0006 35.9943 23.3307C36.0366 23.6609 36.1952 23.9643 36.4406 24.1849C36.6859 24.4054 37.0016 24.5281 37.3292 24.5304C37.6568 24.5327 37.9741 24.4144 38.2224 24.1972L50.774 13.1319C50.8477 13.0651 50.9388 13.0214 51.0362 13.0063C51.1337 12.9911 51.2336 13.0052 51.3234 13.0467C51.4133 13.0883 51.4895 13.1555 51.542 13.2402C51.595 13.3249 51.6225 13.4234 51.6213 13.5238V48.1663C51.6213 48.2722 51.5891 48.3759 51.5293 48.4625C51.4692 48.5494 51.3844 48.6153 51.2866 48.6515C51.1883 48.6881 51.0816 48.6924 50.9807 48.6648C50.8804 48.6373 50.7901 48.5792 50.7232 48.4978L12.7846 2.33792C12.1744 1.60552 11.4145 1.01699 10.5579 0.613253C9.70125 0.209513 8.76837 0.000245645 7.8241 2.287e-07H6.49819C4.77478 2.287e-07 3.12192 0.695851 1.90328 1.93448C0.684628 3.1731 0 4.85305 0 6.60472V55.3953C0 57.1468 0.684628 58.8268 1.90328 60.0655C3.12192 61.3042 4.77478 62 6.49819 62C7.60941 62.0004 8.70212 61.7111 9.67214 61.16C10.6421 60.6093 11.457 59.8149 12.039 58.8526L24.7897 39.6111C24.9713 39.334 25.048 38.9994 25.0057 38.6693C24.9634 38.3391 24.8048 38.0357 24.5594 37.8151C24.314 37.5946 23.9984 37.4719 23.6708 37.4696C23.3432 37.4673 23.0259 37.5857 22.7776 37.8028L10.226 48.8681C10.1524 48.9348 10.0613 48.9787 9.96371 48.9938C9.86616 49.0088 9.76635 48.9946 9.67651 48.9533C9.5867 48.9115 9.5107 48.8444 9.4578 48.76C9.40493 48.6752 9.37748 48.5766 9.37875 48.4762V13.8251C9.37879 13.7191 9.41094 13.6156 9.47084 13.5287C9.53074 13.4419 9.61546 13.3759 9.71353 13.3397C9.81164 13.3035 9.9183 13.2988 10.019 13.3264C10.1198 13.3539 10.2098 13.4123 10.2768 13.4936L48.2112 59.6621C48.8216 60.3945 49.5811 60.983 50.4381 61.3869C51.2946 61.7903 52.2274 61.9996 53.1717 62H54.4976C55.3511 62.0004 56.1967 61.8304 56.9854 61.4984C57.7746 61.1669 58.4914 60.6803 59.095 60.0672C59.6991 59.4537 60.1782 58.7252 60.5048 57.9239C60.8318 57.1222 61 56.2628 61 55.3953V6.60472C61 4.85305 60.3154 3.1731 59.0967 1.93448C57.878 0.695851 56.2251 2.287e-07 54.5018 2.287e-07C53.3907 -0.000296855 52.2978 0.288847 51.3277 0.839833C50.358 1.39082 49.543 2.18526 48.961 3.14736Z" fill="white"/>
</svg>
