<svg width="74" height="71" viewBox="0 0 74 71" fill="none" xmlns="http://www.w3.org/2000/svg">
<path fill-rule="evenodd" clip-rule="evenodd" d="M74 39.5993C74 39.9628 73.9186 40.3084 73.7644 40.6082L57.8948 69.0506C57.2219 70.2569 55.978 71 54.6321 71H19.3679C18.022 71 16.7781 70.2569 16.1052 69.0506L0.234025 40.6054C0.080244 40.306 0 39.9621 0 39.5993C0 38.4219 0.922226 37.4676 2.05998 37.4676H19.4717L23.8844 45.2234L23.9115 45.2696C24.5005 46.248 25.7393 46.5668 26.7048 45.9789L26.7547 45.9474C27.1999 45.6584 27.522 45.2036 27.654 44.6758L33.2766 22.184L38.1045 58.3944L38.1119 58.4448C38.2901 59.5839 39.316 60.3732 40.4267 60.2146L40.4771 60.2068C41.2811 60.071 41.9344 59.4563 42.1393 58.6368L48.9168 31.5264L51.6994 36.4176L51.7269 36.4647C52.1025 37.0873 52.7627 37.4676 53.4745 37.4676H71.94C73.0778 37.4676 74 38.4219 74 39.5993ZM54.6321 0C55.978 0 57.2219 0.743133 57.8948 1.94942L73.7655 30.3932C73.9188 30.6926 74 31.0381 74 31.4007C74 32.5781 73.0778 33.5324 71.94 33.5324H54.4712L50.0585 25.7768L50.0282 25.725C49.7488 25.2644 49.3094 24.9309 48.7993 24.7944L48.7514 24.7823C47.6655 24.5196 46.5698 25.201 46.2891 26.3242L40.6662 48.8158L35.8384 12.6056L35.831 12.5535C35.6997 11.7214 35.1056 11.0452 34.3138 10.8332C33.2124 10.5385 32.0885 11.2234 31.8036 12.3632L25.0261 39.4734L22.2435 34.5824L22.216 34.5353C21.8404 33.9127 21.1802 33.5324 20.4684 33.5324H2.05998C0.922226 33.5324 0 32.5781 0 31.4007C0 31.041 0.0781628 30.7004 0.229169 30.4029L16.1052 1.94942C16.7781 0.743133 18.022 0 19.3679 0H54.6321Z" fill="url(#paint0_linear_3483_1562)"/>
<defs>
<linearGradient id="paint0_linear_3483_1562" x1="8.10739e-07" y1="81.8223" x2="69.6235" y2="-10.4541" gradientUnits="userSpaceOnUse">
<stop offset="0.141877" stop-color="#00EAFF"/>
<stop offset="0.319998" stop-color="#0080FF"/>
<stop offset="0.486823" stop-color="#8000FF"/>
<stop offset="0.657691" stop-color="#E619E6"/>
<stop offset="0.851248" stop-color="#FF0000"/>
</linearGradient>
</defs>
</svg>
