<svg width="38" height="37" viewBox="0 0 38 37" fill="none" xmlns="http://www.w3.org/2000/svg">
<g clip-path="url(#clip0_3959_7302)">
<path d="M16.5275 19.3177L17.1764 18.6653V16.3676L16.5275 15.7152H15.6321L15.0137 16.3676V18.6653L15.6321 19.3177H16.5275Z" fill="#00FF00"/>
<path d="M22.3674 19.287L22.985 18.6346V16.3676L22.3674 15.7152H21.4712L20.8223 16.3676V18.6346L21.4712 19.287H22.3674Z" fill="#00FF00"/>
<path d="M36.9819 14.1311L36.0857 14.0067L32.8726 16.491L32.7487 17.392L32.6047 17.5164H31.7297L31.0809 18.1687V19.0383L31.6679 19.6285V19.9393L31.0495 20.5917L31.0809 24.6609L31.7297 25.2817L31.7603 25.5926L31.7773 25.6062L31.1733 26.2134V27.1144L30.8953 27.3938H26.3531L26.0753 27.1144V22.5479L25.9516 22.4244L25.4264 21.8964V21.5855L25.3806 21.5387L26.0134 20.9017V20.0321L25.966 19.9845L26.0753 19.97L26.2608 19.7528L27.157 19.66L29.3196 16.864L29.2298 15.9911L29.4434 15.7773L29.4367 15.6922L29.4434 15.6836L29.4163 15.4315L29.412 15.3728L30.0608 14.7213L29.999 9.50236L29.3502 8.88152V8.81936L29.3816 8.54001L29.1342 8.22917L29.2266 7.32812L27.0334 4.53302L26.1371 4.43934L26.0049 4.26219L26.0134 4.25367V3.38328L25.3959 2.73092H24.531L24.2218 2.48309V1.58205L23.5416 0.929688H14.4589L13.7786 1.58205V2.48309L13.4703 2.73092H12.6045L11.987 3.38328V4.25367L11.9954 4.26219L11.8633 4.43934L10.967 4.53302L8.77389 7.32812L8.86623 8.22917L8.61971 8.54001L8.6502 8.81936V8.88152L8.00132 9.50236L7.93947 14.7213L8.58836 15.3728L8.55787 15.7773L8.79931 16.0192L8.71205 16.864L10.8747 19.66L11.771 19.7528L11.9565 19.97L12.0361 19.981L11.987 20.0321V20.9017L12.6045 21.554L12.574 21.5855V21.8964L12.0488 22.4244L11.9251 22.5479V27.1144L11.6473 27.3938H7.10508L6.82723 27.1144V26.2134L6.2097 25.5926L6.24019 25.2817L6.88908 24.6609L6.9204 20.5917L6.30201 19.9393L6.32998 19.6319L6.9204 19.0383V18.1687L6.27152 17.5164H5.39562L5.25162 17.392L5.12793 16.491L1.91484 14.0067L1.01859 14.1311L0.462891 14.8448L0.586569 15.7458L3.79966 18.2309L4.6959 18.1066L4.76368 18.1619L4.75774 18.1687V19.0383L5.37528 19.6906H5.40663V19.8771L4.75774 20.5295L4.6959 24.5987L5.31343 25.251V25.561H5.28294L4.66455 26.2134V27.1144L5.28294 27.7353H6.17835L6.45705 28.0154V28.9157L7.07459 29.5373H11.6159L12.2648 28.9157V28.0154L12.5435 27.7353H13.4703L14.0878 27.1144V22.5479L13.5321 21.8964L13.5008 21.554L14.1497 20.9017V20.0321L13.5008 19.3798H12.6299L12.4817 19.1933L12.574 18.2931L10.38 15.4971L9.48462 15.4043L9.48207 15.4009L9.48462 15.3728L10.1335 14.7519L10.164 9.56456L9.54644 8.91218L9.55493 8.81425L9.57696 8.78784L10.4732 8.69502L12.6359 5.89989L12.5435 4.99887L12.6155 4.90519H13.5008L14.1497 4.25367V3.38328L14.4589 3.13546H23.5416L23.8507 3.38328V4.25367L24.4996 4.90519H25.3857L25.4577 4.99887L25.3645 5.89989L27.5271 8.69502L28.4233 8.78784L28.4454 8.81425L28.4548 8.91218L27.8363 9.56456L27.8678 14.7519L28.5158 15.3728L28.5193 15.4068L27.651 15.4971L25.4577 18.2931L25.5501 19.1933L25.3857 19.4011L25.3645 19.3798H24.4691L23.8507 20.0321V20.9017L24.4691 21.554H24.4996L24.4691 21.8964L23.9439 22.5479V27.1144L24.5615 27.7353H25.4577L25.7356 28.0154V28.9157L26.3845 29.5373H30.9259L31.5443 28.9157V28.0154L31.8221 27.7353H32.7184L33.3357 27.1144V26.2134L32.7184 25.561H32.6566V25.251L33.2739 24.5987L33.2121 20.5295L32.5633 19.8771V19.6906H32.6251L33.2436 19.0383V18.1687L33.2369 18.1619L33.3054 18.1066L34.2008 18.2309L37.4139 15.7458L37.5375 14.8448L36.9819 14.1311Z" fill="#00FF00"/>
<path d="M16.1882 27.5488L15.5393 28.2011V29.1021L15.2615 29.3816H14.3652L10.0399 33.6373V34.5067L9.76203 34.7861H5.22066L4.94198 34.5067V33.6056L4.29309 32.9541H3.39769L2.7793 33.6056V34.5067L3.39769 35.1284H4.29309L4.57177 35.4078V36.3089L5.18933 36.9297H9.73153L10.3796 36.3089V35.4078L10.6574 35.1284L10.6888 35.1593H11.585L15.9103 30.9035V30.0032L16.1577 29.723H17.0226L17.7333 29.1021V28.2011L17.0845 27.5488H16.1882Z" fill="#00FF00"/>
<path d="M33.7685 32.9541L33.1194 33.6056V34.5067L32.8416 34.7861H28.2994L28.0216 34.5067V33.6373L23.6962 29.3816H22.8L22.5221 29.1021V28.2011L21.8732 27.5488H20.977L20.3281 28.2011V29.1021L21.0389 29.723H21.9046L22.1511 30.0032V30.9035L26.4765 35.1593H27.3728L27.404 35.1284L27.6818 35.4078V36.3089L28.3308 36.9297H32.8722L33.4896 36.3089V35.4078L33.7685 35.1284H34.6639L35.2821 34.5067V33.6056L34.6639 32.9541H33.7685Z" fill="#00FF00"/>
</g>
<defs>
<clipPath id="clip0_3959_7302">
<rect width="37.0746" height="36" fill="white" transform="translate(0.462891 0.929688)"/>
</clipPath>
</defs>
</svg>
