<svg width="66" height="69" viewBox="0 0 66 69" fill="none" xmlns="http://www.w3.org/2000/svg">
<path d="M33.3093 68C51.1533 68 65.6187 53.0015 65.6187 34.5C65.6187 15.9985 51.1533 1 33.3093 1C15.4654 1 1 15.9985 1 34.5C1 53.0015 15.4654 68 33.3093 68Z" fill="url(#paint0_linear_184_851)"/>
<path d="M33.3093 68C51.1533 68 65.6187 53.0015 65.6187 34.5C65.6187 15.9985 51.1533 1 33.3093 1C15.4654 1 1 15.9985 1 34.5C1 53.0015 15.4654 68 33.3093 68Z" fill="url(#paint1_linear_184_851)"/>
<path d="M33.3111 67.6516C50.9692 67.6516 65.2839 52.8094 65.2839 34.5006C65.2839 16.1918 50.9692 1.34961 33.3111 1.34961C15.6531 1.34961 1.33838 16.1918 1.33838 34.5006C1.33838 52.8094 15.6531 67.6516 33.3111 67.6516Z" stroke="url(#paint2_linear_184_851)" stroke-opacity="0.12" stroke-width="1.1875"/>
<path fill-rule="evenodd" clip-rule="evenodd" d="M45.3204 18.3573C45.4575 17.9876 45.21 17.5861 44.8289 17.5599L38.4026 17.118C38.2039 17.1044 38.013 17.1997 37.8994 17.3693L36.1967 19.9125C36.0902 20.0717 35.9147 20.1663 35.7278 20.1651L24.4156 20.0959C23.8605 20.0925 23.3236 20.3003 22.9065 20.6799L19.7678 23.5363C19.0695 24.1718 18.8158 25.1848 19.1278 26.0923L20.6228 30.4415C20.6304 30.4639 20.6268 30.4888 20.613 30.5078C19.773 31.6656 19.2847 33.0565 19.2102 34.5033L19.1849 34.9961C19.0267 38.0701 19.3758 41.1491 20.2175 44.1014C20.9111 46.5342 21.7061 49.3222 22.1933 51.0312C22.4504 51.9328 23.3385 52.4647 24.2202 52.2451C26.1186 51.7724 29.379 50.9603 31.9467 50.3193C34.2047 49.7555 36.3516 48.7944 38.2983 47.4809L39.5163 46.6591C40.6875 45.8689 41.605 44.7349 42.1521 43.4017C42.161 43.3798 42.18 43.3641 42.2026 43.3598L46.5827 42.5276C47.4967 42.354 48.2159 41.6197 48.3976 40.6748L49.2141 36.4283C49.3226 35.8639 49.2277 35.2779 48.9473 34.7812L43.6334 25.3668C43.2852 24.7501 43.2266 24.0025 43.474 23.3355L45.3204 18.3573Z" stroke="white" stroke-width="3"/>
<defs>
<linearGradient id="paint0_linear_184_851" x1="33.3093" y1="1" x2="33.3093" y2="68" gradientUnits="userSpaceOnUse">
<stop stop-color="#130C3F"/>
<stop offset="1" stop-color="#15197B"/>
</linearGradient>
<linearGradient id="paint1_linear_184_851" x1="1" y1="34.5" x2="65.6187" y2="34.5" gradientUnits="userSpaceOnUse">
<stop stop-color="#AE73FA"/>
<stop offset="1" stop-color="#AE73FA" stop-opacity="0.38"/>
</linearGradient>
<linearGradient id="paint2_linear_184_851" x1="65.6205" y1="34.5006" x2="1.00179" y2="34.5006" gradientUnits="userSpaceOnUse">
<stop stop-color="#AE73FA"/>
<stop offset="1" stop-color="#AE73FA" stop-opacity="0"/>
</linearGradient>
</defs>
</svg>
