<svg width="213" height="46" viewBox="0 0 213 46" fill="none" xmlns="http://www.w3.org/2000/svg">
<path fill-rule="evenodd" clip-rule="evenodd" d="M45.781 16.8158V22.9701C45.781 35.4519 35.6395 45.5935 23.1576 45.5935C10.6758 45.5935 0.534241 35.4519 0.534241 22.9701C0.534241 10.4882 10.6758 0.346716 23.1576 0.346716H29.3119L17.9568 11.7017V28.1709H34.426L45.781 16.8158ZM45.781 0.346716H29.3119V16.8158H45.781V0.346716ZM54.3623 8.58128C54.3623 3.29382 57.5694 0.0866783 63.2902 0.0866783C68.491 0.0866783 71.1781 2.86042 71.6982 6.84768H67.8843C67.5376 4.42066 66.064 3.03379 63.2902 3.03379C59.9097 3.03379 58.2628 4.85405 58.2628 8.58128C58.2628 12.3085 60.1698 14.1288 63.2902 14.1288C66.1507 14.1288 67.6242 12.6552 67.971 10.3149H71.8715C71.3515 14.4755 68.4043 17.1626 63.2902 17.1626C57.5694 17.0759 54.3623 13.7821 54.3623 8.58128ZM90.421 8.4946C90.421 13.7821 87.1271 17.0759 81.6663 17.0759C76.5522 17.0759 72.9117 14.1288 72.9117 8.66796C72.9117 3.3805 76.2055 0.0866783 81.6663 0.0866783C86.7804 0.0866783 90.421 3.03378 90.421 8.4946ZM86.6937 8.66796C86.6937 4.85406 84.7001 3.12046 81.6663 3.12046C78.5459 3.12046 76.6389 4.85405 76.6389 8.58128C76.6389 12.3952 78.6325 14.1288 81.6663 14.1288C84.8735 14.1288 86.6937 12.3952 86.6937 8.66796ZM92.4146 0.346716H96.1418V4.6807C97.0953 1.73359 98.9156 0 102.296 0C106.11 0 108.277 2.25367 108.277 6.24093V16.7292H104.55V6.84768C104.55 4.16062 103.163 2.9471 100.562 2.9471C98.3955 2.9471 97.0953 3.8139 96.1418 5.63417V16.8158H92.4146V0.346716ZM109.837 11.7884H113.738C114.084 13.4353 115.298 14.2155 118.158 14.2155C121.106 14.2155 122.059 13.3487 122.059 12.1351C122.059 11.2683 121.626 10.5749 120.065 10.4015L115.298 9.88147C111.657 9.44807 110.271 7.88784 110.271 5.37413C110.271 2.42703 112.438 0.173357 117.638 0.173357C122.752 0.173357 124.919 2.34035 125.353 5.46081H121.539C121.279 3.98726 120.325 3.12046 117.552 3.12046C114.778 3.12046 113.824 3.98726 113.824 5.20077C113.824 6.15425 114.345 6.76101 115.818 6.93437L120.759 7.54112C124.399 7.97452 125.526 9.70811 125.526 12.1351C125.526 15.0822 123.273 17.2492 117.985 17.2492C112.611 17.0759 110.271 15.0822 109.837 11.7884ZM135.668 17.0759C130.034 17.0759 127.086 13.4353 127.086 8.66796C127.086 3.55386 130.294 0.0866783 135.668 0.0866783C141.649 0.0866783 144.162 3.8139 144.162 9.53475H130.814C131.16 12.4819 132.981 14.1288 135.754 14.1288C138.268 14.1288 139.655 13.1753 140.262 11.5284H144.076C143.209 14.9089 140.348 17.0759 135.668 17.0759ZM130.9 7.02104H140.262C140.002 4.59402 138.615 3.03379 135.668 3.03379C133.067 3.03379 131.334 4.33398 130.9 7.02104ZM145.983 0.346716H149.71V4.6807C150.663 1.82027 152.484 0.0866783 155.864 0.0866783C159.678 0.0866783 161.845 2.34035 161.845 6.32761V16.8158H158.118V6.84768C158.118 4.16062 156.731 2.9471 154.13 2.9471C151.963 2.9471 150.663 3.8139 149.71 5.63417V16.8158H145.983V0.346716ZM163.405 11.7884H167.306C167.652 13.4353 168.866 14.2155 171.726 14.2155C174.674 14.2155 175.627 13.3487 175.627 12.1351C175.627 11.2683 175.194 10.5749 173.633 10.4015L168.866 9.88147C165.225 9.44807 163.839 7.88784 163.839 5.37413C163.839 2.42703 166.006 0.173357 171.206 0.173357C176.32 0.173357 178.487 2.34035 178.921 5.46081H175.107C174.847 3.98726 173.893 3.12046 171.12 3.12046C168.346 3.12046 167.392 3.98726 167.392 5.20077C167.392 6.15425 167.913 6.76101 169.386 6.93437L174.327 7.54112C177.967 7.97452 179.094 9.70811 179.094 12.1351C179.094 15.0822 176.84 17.2492 171.553 17.2492C166.179 17.0759 163.839 15.0822 163.405 11.7884ZM196.863 0.346716L189.929 20.8898H181.001V17.856H187.242L188.196 15.0822H184.642L179.268 0.433398H183.341L188.282 14.8222L193.05 0.433398H196.863V0.346716ZM196.777 11.7884H200.677C201.024 13.4353 202.238 14.2155 205.098 14.2155C208.045 14.2155 208.999 13.3487 208.999 12.1351C208.999 11.2683 208.565 10.5749 207.005 10.4015L202.238 9.88147C198.597 9.44807 197.21 7.88784 197.21 5.37413C197.21 2.42703 199.377 0.173357 204.578 0.173357C209.692 0.173357 211.859 2.34035 212.292 5.46081H208.479C208.219 3.98726 207.265 3.12046 204.491 3.12046C201.718 3.12046 200.764 3.98726 200.764 5.20077C200.764 6.15425 201.284 6.76101 202.758 6.93437L207.698 7.54112C211.339 7.97452 212.466 9.70811 212.466 12.1351C212.466 15.0822 210.212 17.2492 204.925 17.2492C199.551 17.0759 197.21 15.0822 196.777 11.7884Z" fill="white"/>
<path d="M55.0558 40.0459L56.8761 39.6992C57.0495 40.7393 57.4829 41.5195 58.263 42.0395C59.0431 42.5596 59.9966 42.9063 61.2101 42.9063C62.3369 42.9063 63.2904 42.6463 63.9838 42.1262C64.6773 41.6061 65.024 40.9127 65.024 40.1326C65.024 39.5258 64.8506 39.0058 64.5039 38.5724C64.1572 38.139 63.7238 37.7922 63.1171 37.6189C62.597 37.3588 61.9035 37.1855 61.2968 37.0121C60.6033 36.8388 59.9099 36.6654 59.2165 36.4054C58.523 36.1453 57.9163 35.8853 57.3095 35.6253C56.7894 35.2785 56.2694 34.8451 55.9226 34.3251C55.5759 33.7183 55.4026 33.0249 55.4026 32.2447C55.4026 30.9446 55.9226 29.9044 56.9628 29.1243C58.003 28.2575 59.3032 27.9108 60.8634 27.9108C62.4236 27.9108 63.7238 28.3442 64.764 29.1243C65.8041 29.9911 66.4109 31.0312 66.5842 32.3314L64.764 32.6781C64.5906 31.7247 64.1572 30.9446 63.4638 30.3378C62.7703 29.731 61.9035 29.471 60.7767 29.471C59.7365 29.471 58.8698 29.731 58.1763 30.2511C57.4829 30.7712 57.1362 31.378 57.1362 32.1581C57.1362 32.7648 57.3095 33.2849 57.6562 33.6316C58.003 34.065 58.4364 34.3251 59.0431 34.5851C59.6499 34.8451 60.2566 35.0185 60.9501 35.1919C61.6435 35.3652 62.3369 35.5386 63.0304 35.7986C63.7238 36.0586 64.3306 36.3187 64.8506 36.6654C65.3707 37.0121 65.8908 37.4455 66.2375 38.0523C66.5842 38.659 66.7576 39.3525 66.7576 40.2193C66.7576 41.5195 66.2375 42.6463 65.1107 43.4264C63.9838 44.2932 62.597 44.7266 60.9501 44.7266C59.3031 44.7266 57.9163 44.2932 56.7894 43.5131C55.6626 42.733 55.2292 41.3461 55.0558 40.0459Z" fill="white"/>
<path d="M70.7449 42.6463C69.5314 41.4328 68.9246 40.0459 68.9246 38.2257C68.9246 36.4921 69.5314 35.0185 70.7449 33.805C71.9584 32.5915 73.432 32.0714 75.1655 32.0714C76.4657 32.0714 77.5926 32.4181 78.6327 33.0249C79.6729 33.7183 80.3663 34.5851 80.8864 35.712L79.2395 36.232C78.8928 35.4519 78.3727 34.7585 77.5926 34.3251C76.8991 33.8917 76.0323 33.6316 75.1655 33.6316C73.952 33.6316 72.8252 34.065 72.0451 34.9318C71.265 35.7986 70.7449 36.8388 70.7449 38.139C70.7449 39.4392 71.1783 40.4793 72.0451 41.3461C72.9119 42.2129 73.952 42.6463 75.1655 42.6463C76.0323 42.6463 76.8991 42.3863 77.5926 41.9529C78.286 41.5195 78.8061 40.826 79.2395 40.0459L80.8864 40.566C80.3663 41.6928 79.6729 42.6463 78.6327 43.2531C77.5926 43.9465 76.4657 44.2066 75.1655 44.2066C73.432 44.4666 71.9584 43.8598 70.7449 42.6463Z" fill="white"/>
<path d="M88.1674 32.1581C89.4676 32.1581 90.5944 32.5048 91.4612 33.1982C92.328 33.8917 92.7614 34.9318 92.7614 36.1453V44.2065H91.0278V42.0396C89.9877 43.5998 88.5141 44.3799 86.5205 44.3799C85.3937 44.3799 84.4402 44.1199 83.7468 43.5131C83.0533 42.9063 82.7066 42.1262 82.7066 41.1728C82.7066 40.1326 83.0533 39.2658 83.8334 38.7457C84.6135 38.139 85.567 37.7923 86.8672 37.7056L89.5543 37.3589C90.5078 37.2722 91.0278 36.8388 91.0278 35.972C91.0278 35.2785 90.7678 34.6718 90.2477 34.2384C89.7276 33.805 89.0342 33.6316 88.2541 33.6316C87.3873 33.6316 86.6939 33.805 86.0871 34.2384C85.4803 34.6718 85.047 35.2785 84.8736 36.1453L83.14 35.7119C83.4 34.5851 84.0068 33.6316 84.9603 33.0249C85.7404 32.4181 86.8672 32.1581 88.1674 32.1581ZM86.6939 42.993C87.9074 42.993 88.8608 42.5596 89.7276 41.7795C90.5944 40.9994 90.9412 40.0459 90.9412 38.9191V38.2257C90.6811 38.4857 90.161 38.659 89.3809 38.7457L86.8672 39.0058C86.1738 39.0924 85.567 39.3525 85.1336 39.6125C84.7002 39.9592 84.4402 40.3926 84.4402 40.9994C84.4402 41.5195 84.6136 42.0396 85.0469 42.3863C85.4803 42.8197 86.0004 42.993 86.6939 42.993Z" fill="white"/>
<path d="M97.3555 44.2066H95.6219V26.8707H97.3555V44.2066Z" fill="white"/>
<path d="M105.937 32.1581C107.757 32.1581 109.231 32.7648 110.444 34.065C111.658 35.3652 112.178 36.9255 112.004 38.8324H101.603C101.689 40.0459 102.21 40.9994 103.076 41.7795C103.943 42.5596 104.897 42.9064 106.11 42.9064C107.064 42.9064 107.844 42.6463 108.537 42.2129C109.231 41.7795 109.837 41.1728 110.184 40.3926L111.658 40.9994C111.137 42.0396 110.444 42.9063 109.404 43.5131C108.45 44.1199 107.324 44.4666 106.023 44.4666C104.29 44.4666 102.816 43.8598 101.603 42.733C100.389 41.5195 99.7825 40.1326 99.7825 38.3123C99.7825 36.5787 100.389 35.1052 101.516 33.8917C102.816 32.7648 104.203 32.1581 105.937 32.1581ZM105.937 33.7183C104.897 33.7183 103.943 34.065 103.163 34.7585C102.383 35.4519 101.863 36.3187 101.689 37.4455H110.271C110.097 36.4054 109.577 35.5386 108.797 34.8451C108.017 34.065 107.064 33.7183 105.937 33.7183Z" fill="white"/>
</svg>
