<svg width="256" height="43" viewBox="0 0 256 43" fill="none" xmlns="http://www.w3.org/2000/svg">
<path d="M17.2116 17.3561L17.4336 12.5474H17.1681L12.213 20.6206H11.1512L5.9741 12.5474H5.75209L6.01754 16.8702V33.8031H0.263672V2.93579H6.41572L11.7256 11.49H11.9017L17.1681 2.93579H23.2751V33.8031H17.2116V17.3561Z" fill="#29C278"/>
<path d="M27.6523 28.9536H35.4421V16.6041H27.6523V11.7562H41.192V28.9536H49.3792V33.8031H27.6523V28.9536ZM34.3779 5.75786C34.3779 4.84792 34.719 4.06866 35.3995 3.42169C36.0768 2.77471 37.0212 2.44922 38.2294 2.44922C39.4682 2.44922 40.4584 2.77471 41.196 3.42169C41.9345 4.06866 42.3037 4.84792 42.3037 5.75786C42.3037 6.69906 41.9345 7.47271 41.196 8.07559C40.46 8.67847 39.4698 8.97751 38.2294 8.97751C37.0212 8.97751 36.0768 8.67847 35.3995 8.07559C34.7174 7.47271 34.3779 6.69906 34.3779 5.75786Z" fill="#29C278"/>
<path d="M60.9279 22.4276L53.2274 11.7561H60.0865L65.0866 19.1206L70.308 11.7561H76.5461L68.9807 22.341L76.9853 33.803H70.308L64.6892 25.6906L58.9812 33.803H52.6973L60.9279 22.4276Z" fill="#29C278"/>
<path d="M101.721 10.1232C101.721 10.8904 101.625 11.6513 101.432 12.4153C101.242 13.1825 100.925 13.876 100.481 14.5117C100.041 15.1427 99.4631 15.7047 98.7552 16.1873C98.0457 16.6715 97.1938 17.0347 96.1875 17.268V17.5326C97.0756 17.6785 97.9138 17.927 98.7109 18.2846C99.5089 18.6357 100.201 19.1208 100.793 19.7381C101.381 20.3562 101.846 21.105 102.186 21.9885C102.525 22.8711 102.694 23.9133 102.694 25.1159C102.694 26.7025 102.355 28.0766 101.674 29.2415C100.997 30.4 100.09 31.3516 98.9547 32.0835C97.8189 32.8179 96.5246 33.3623 95.0839 33.715C93.6336 34.0678 92.1454 34.2441 90.6106 34.2441C90.1087 34.2441 89.4684 34.2441 88.6857 34.2441C87.9046 34.2441 87.0608 34.2249 86.1639 34.1816C85.2638 34.1335 84.3476 34.0678 83.4193 33.9796C82.4926 33.893 81.6432 33.7623 80.875 33.5819V3.15719C81.4341 3.0682 82.0784 2.98001 82.7991 2.89102C83.5231 2.80684 84.2977 2.73469 85.1262 2.67376C85.9491 2.61443 86.8002 2.57034 87.6681 2.53747C88.5377 2.51262 89.4008 2.49658 90.2591 2.49658C91.7038 2.49658 93.1131 2.60481 94.483 2.82528C95.8545 3.04575 97.0804 3.43458 98.1535 3.99337C99.2306 4.55536 100.094 5.33222 100.745 6.33274C101.396 7.33007 101.721 8.59676 101.721 10.1232ZM88.6198 15.9011C89.0388 15.9011 89.5279 15.8851 90.0838 15.8602C90.6412 15.8273 91.1013 15.7832 91.4633 15.7271C92.6039 15.376 93.5917 14.8549 94.4195 14.155C95.244 13.4567 95.659 12.542 95.659 11.4083C95.659 10.6507 95.5078 10.0222 95.2062 9.52914C94.9037 9.03449 94.5072 8.64326 94.0124 8.35144C93.5153 8.06202 92.9522 7.85679 92.32 7.74214C91.6885 7.6259 91.0281 7.56497 90.3339 7.56497C89.5513 7.56497 88.8313 7.581 88.1677 7.61066C87.5073 7.63872 86.9957 7.68282 86.6369 7.73894V15.9003L88.6198 15.9011ZM90.5712 29.1765C91.3073 29.1765 92.0248 29.0876 92.7174 28.9104C93.41 28.7364 94.0229 28.4686 94.5522 28.1071C95.0863 27.7423 95.5102 27.2821 95.8368 26.7289C96.161 26.1774 96.3227 25.52 96.3227 24.7624C96.3227 23.8027 96.1312 23.0443 95.7459 22.4967C95.3606 21.9412 94.8603 21.5146 94.2393 21.2084C93.6199 20.9029 92.9289 20.7073 92.1615 20.6199C91.3957 20.5342 90.6291 20.4901 89.8625 20.4901H86.6337V28.9144C86.7793 28.9737 87.015 29.0162 87.34 29.0475C87.6641 29.0739 88.0116 29.098 88.38 29.1116C88.7493 29.1284 89.1322 29.1413 89.5303 29.1589C89.9301 29.1701 90.276 29.1765 90.5712 29.1765Z" fill="#29C278"/>
<path d="M118.002 27.5882H119.687L123.979 11.7561H129.907L123.622 31.644C123.063 33.2899 122.515 34.7995 121.987 36.1616C121.454 37.5333 120.834 38.7159 120.128 39.7132C119.42 40.7153 118.584 41.4874 117.627 42.0293C116.669 42.5729 115.499 42.8479 114.108 42.8479C113.432 42.8479 112.789 42.7605 112.184 42.5833C111.581 42.4045 111.024 42.1953 110.525 41.9459C110.022 41.6926 109.58 41.428 109.197 41.1506C108.814 40.8717 108.504 40.6135 108.272 40.3802L111.235 36.4535C111.62 36.7789 112.077 37.078 112.606 37.3586C113.137 37.6376 113.638 37.7763 114.109 37.7763C114.996 37.7763 115.697 37.4692 116.213 36.8511C116.729 36.2338 117.223 35.2212 117.694 33.807H114.553L105.352 11.7601H111.59L118.002 27.5882Z" fill="#29C278"/>
<path d="M136.365 16.604H131.988V11.7561H136.365V6.72704L142.116 5.09717V11.7569H153.709V16.6049H142.116V22.9135C142.116 25.1751 142.542 26.813 143.399 27.8287C144.254 28.8461 145.451 29.3528 146.984 29.3528C147.778 29.3528 148.502 29.2542 149.149 29.0658C149.799 28.8766 150.378 28.6336 150.9 28.3378C151.415 28.0444 151.888 27.7197 152.315 27.3686C152.741 27.0142 153.136 26.6919 153.487 26.3993L156.142 30.3669C155.639 30.953 155.016 31.4885 154.261 31.9768C153.509 32.4602 152.7 32.8907 151.829 33.2571C150.959 33.6219 150.052 33.9089 149.107 34.1141C148.164 34.3193 147.236 34.4236 146.318 34.4236C143.017 34.4236 140.532 33.5048 138.863 31.6673C137.198 29.8306 136.363 26.9116 136.363 22.9143V16.6057L136.365 16.604Z" fill="#29C278"/>
<path d="M181.405 31.4671C181.023 31.8206 180.529 32.1654 179.923 32.5037C179.321 32.842 178.611 33.1595 177.8 33.4529C176.985 33.7471 176.098 33.9804 175.123 34.1576C174.151 34.3348 173.116 34.419 172.023 34.419C170.134 34.419 168.448 34.1576 166.956 33.6269C165.467 33.101 164.207 32.3273 163.175 31.3123C162.143 30.3006 161.351 29.0812 160.812 27.6518C160.261 26.2303 159.99 24.6061 159.99 22.7822C159.99 20.8437 160.298 19.1449 160.916 17.6874C161.536 16.2339 162.386 15.0241 163.463 14.05C164.538 13.0824 165.802 12.356 167.243 11.8654C168.688 11.3827 170.25 11.1406 171.934 11.1406C173.057 11.1406 174.213 11.2881 175.405 11.5824C176.6 11.875 177.7 12.3841 178.705 13.104C179.708 13.8223 180.526 14.786 181.158 15.9917C181.793 17.1975 182.111 18.7272 182.111 20.5799C182.111 21.841 181.962 23.2079 181.668 24.6798H165.74C165.769 25.6218 165.966 26.4163 166.335 27.0609C166.705 27.7079 167.19 28.2386 167.795 28.6475C168.398 29.0579 169.091 29.3626 169.875 29.5494C170.657 29.741 171.488 29.8364 172.374 29.8364C174.144 29.8364 175.596 29.6312 176.731 29.2199C177.867 28.8038 178.789 28.3059 179.496 27.7199L181.405 31.4671ZM171.851 15.724C171.083 15.724 170.36 15.8274 169.682 16.039C169.003 16.2491 168.391 16.5545 167.848 16.961C167.298 17.3651 166.853 17.8677 166.497 18.4642C166.145 19.0639 165.94 19.7405 165.877 20.4869H176.764C176.764 19.0198 176.357 17.8581 175.543 17.0059C174.734 16.1537 173.502 15.724 171.851 15.724Z" fill="#29C278"/>
<path d="M202.115 27.7198C202.115 27.1329 201.755 26.6631 201.029 26.3056C200.308 25.9544 199.414 25.6305 198.355 25.3395C197.293 25.0421 196.126 24.7399 194.858 24.4312C193.591 24.1225 192.425 23.6968 191.36 23.1533C190.298 22.6081 189.406 21.9179 188.686 21.0817C187.963 20.2423 187.599 19.1592 187.599 17.8404C187.599 16.7509 187.844 15.7936 188.329 14.9735C188.815 14.1501 189.48 13.4486 190.32 12.8802C191.162 12.3038 192.164 11.8701 193.329 11.5774C194.493 11.2832 195.758 11.1389 197.114 11.1389C198.555 11.1389 199.826 11.2391 200.917 11.4444C202.009 11.6496 202.961 11.9013 203.772 12.1964C204.584 12.489 205.275 12.8177 205.854 13.1873C206.429 13.5569 206.92 13.884 207.335 14.1782L204.904 18.1025C204.46 17.8412 203.951 17.5686 203.379 17.288C202.801 17.0106 202.196 16.7509 201.561 16.5176C200.929 16.2811 200.265 16.0919 199.571 15.9395C198.876 15.7936 198.19 15.7223 197.512 15.7223C196.273 15.7223 195.272 15.8834 194.504 16.2089C193.739 16.5296 193.353 17.0323 193.353 17.7073C193.353 18.238 193.713 18.6637 194.438 18.9868C195.159 19.3107 196.053 19.6113 197.116 19.8887C198.173 20.1709 199.341 20.4732 200.609 20.7971C201.878 21.1161 203.042 21.5394 204.107 22.0501C205.166 22.5656 206.062 23.2367 206.784 24.0576C207.504 24.8826 207.87 25.94 207.87 27.2348C207.87 29.4691 207.049 31.2249 205.409 32.5036C203.772 33.7815 201.347 34.4221 198.133 34.4221C195.594 34.4221 193.406 34.0477 191.561 33.2997C189.718 32.5477 188.233 31.6746 187.115 30.6773L189.772 26.5293C190.157 26.8532 190.663 27.2139 191.297 27.6116C191.93 28.006 192.645 28.3708 193.44 28.6939C194.237 29.0162 195.085 29.2871 195.987 29.5084C196.884 29.7289 197.778 29.8403 198.663 29.8403C199.608 29.8403 200.418 29.6792 201.097 29.3553C201.775 29.0274 202.115 28.4838 202.115 27.7198Z" fill="#29C278"/>
<path d="M230.841 0.299036C228.94 3.73434 227.526 7.06383 226.606 10.2875C225.684 13.5071 225.219 16.7276 225.219 19.9488C225.219 23.1396 225.682 26.3609 226.606 29.599C227.526 32.8419 228.936 36.1914 230.841 39.6403H225.914C223.623 36.3173 221.925 33.0431 220.814 29.8098C219.705 26.5886 219.152 23.2944 219.152 19.9464C219.152 16.6113 219.71 13.3227 220.826 10.0798C221.945 6.83855 223.639 3.574 225.914 0.296631H230.841V0.299036Z" fill="#29C278"/>
<path d="M244.191 0.299072H249.117C251.393 3.57805 253.089 6.84099 254.204 10.0823C255.321 13.3252 255.88 16.613 255.88 19.9489C255.88 23.2968 255.326 26.591 254.217 29.8123C253.107 33.0439 251.408 36.3197 249.117 39.6412H244.191C246.091 36.1914 247.506 32.8435 248.428 29.6014C249.35 26.3633 249.813 23.1405 249.813 19.9513C249.813 16.73 249.352 13.5096 248.428 10.2899C247.506 7.06387 246.093 3.73438 244.191 0.299072Z" fill="#29C278"/>
</svg>
