<svg width="506" height="65" viewBox="0 0 506 65" fill="none" xmlns="http://www.w3.org/2000/svg">
<line x1="340.5" y1="2" x2="340.5" y2="64" stroke="#161616" stroke-width="5"/>
<path d="M376.86 50.5836C374.105 50.5836 371.624 50 369.42 48.8328C367.247 47.6656 365.691 46.1742 364.751 44.3585L368.398 41.6351C370.441 44.78 373.294 46.3525 376.958 46.3525C378.806 46.3525 380.33 45.8986 381.529 44.9908C382.729 44.0505 383.329 42.7861 383.329 41.1974C383.329 38.5388 381.675 36.5934 378.368 35.3614L373.797 33.6106C371.073 32.6055 369.079 31.3573 367.815 29.8658C366.583 28.342 365.967 26.4129 365.967 24.0785C365.967 21.2902 366.972 19.0693 368.982 17.4157C371.024 15.7298 373.618 14.8868 376.763 14.8868C378.871 14.8868 380.8 15.3245 382.551 16.1999C384.301 17.0429 385.728 18.1776 386.83 19.6042L383.523 22.5222C381.61 20.2527 379.325 19.1179 376.666 19.1179C374.915 19.1179 373.44 19.5718 372.24 20.4796C371.041 21.355 370.441 22.4898 370.441 23.8839C370.441 25.2781 370.846 26.3805 371.657 27.191C372.467 28.0016 373.797 28.7473 375.645 29.4281L379.827 31.033C382.486 32.0381 384.48 33.335 385.809 34.9237C387.171 36.5124 387.852 38.5388 387.852 41.0028C387.852 43.8884 386.814 46.2066 384.739 47.9574C382.696 49.7082 380.07 50.5836 376.86 50.5836ZM394.556 50V25.6834H398.738V29.4281C400.392 26.6074 402.969 25.197 406.471 25.197C409.227 25.197 411.448 26.0887 413.134 27.8719C414.82 29.6551 415.663 32.0381 415.663 35.021V50H411.529V35.6532C411.529 33.6106 411.01 32.0057 409.973 30.8385C408.935 29.6389 407.541 29.0391 405.79 29.0391C403.78 29.0391 402.094 29.8334 400.732 31.4221C399.403 33.0108 398.738 35.1831 398.738 37.939V50H394.556ZM434.185 50.4863C430.813 50.4863 427.977 49.2543 425.675 46.7902C423.405 44.3261 422.27 41.3433 422.27 37.8417C422.27 34.3401 423.405 31.3573 425.675 28.8932C427.977 26.4291 430.813 25.197 434.185 25.197C435.969 25.197 437.622 25.6023 439.146 26.4129C440.702 27.191 441.902 28.1961 442.745 29.4281V25.6834H446.927V50H442.745V46.2552C441.902 47.4873 440.702 48.5086 439.146 49.3191C437.622 50.0973 435.969 50.4863 434.185 50.4863ZM434.818 46.6443C437.217 46.6443 439.195 45.8013 440.751 44.1154C442.307 42.4294 443.085 40.3382 443.085 37.8417C443.085 35.3452 442.307 33.254 440.751 31.568C439.195 29.882 437.217 29.0391 434.818 29.0391C432.386 29.0391 430.392 29.882 428.836 31.568C427.279 33.254 426.501 35.3452 426.501 37.8417C426.501 40.3382 427.279 42.4294 428.836 44.1154C430.392 45.8013 432.386 46.6443 434.818 46.6443ZM459.955 60.1643H455.773V25.6834H459.955V29.4281C460.798 28.1961 461.982 27.191 463.506 26.4129C465.062 25.6023 466.732 25.197 468.515 25.197C471.887 25.197 474.707 26.4291 476.977 28.8932C479.279 31.3573 480.43 34.3401 480.43 37.8417C480.43 41.3433 479.279 44.3261 476.977 46.7902C474.707 49.2543 471.887 50.4863 468.515 50.4863C466.732 50.4863 465.062 50.0973 463.506 49.3191C461.982 48.5086 460.798 47.4873 459.955 46.2552V60.1643ZM461.949 44.1154C463.506 45.8013 465.483 46.6443 467.883 46.6443C470.282 46.6443 472.26 45.8013 473.816 44.1154C475.372 42.4294 476.15 40.3382 476.15 37.8417C476.15 35.3452 475.372 33.254 473.816 31.568C472.26 29.882 470.282 29.0391 467.883 29.0391C465.483 29.0391 463.506 29.882 461.949 31.568C460.393 33.254 459.615 35.3452 459.615 37.8417C459.615 40.3382 460.393 42.4294 461.949 44.1154ZM494.722 50.4863C492.485 50.4863 490.524 50.0162 488.838 49.076C487.152 48.1033 485.936 46.6929 485.19 44.8449L488.595 42.9482C489.049 44.1478 489.843 45.088 490.978 45.7689C492.112 46.4498 493.377 46.7902 494.771 46.7902C495.971 46.7902 496.976 46.4984 497.786 45.9148C498.597 45.3312 499.002 44.5369 499.002 43.5318C499.002 42.6564 498.678 41.9269 498.029 41.3433C497.413 40.7597 496.327 40.2247 494.771 39.7384L492.339 38.9603C488.287 37.7931 486.26 35.4262 486.26 31.8598C486.26 29.8496 487.055 28.2447 488.643 27.0451C490.264 25.8131 492.258 25.197 494.625 25.197C498.321 25.197 500.996 26.6074 502.65 29.4281L499.537 31.568C498.208 29.7199 496.522 28.7959 494.479 28.7959C493.377 28.7959 492.42 29.0715 491.61 29.6227C490.832 30.1414 490.443 30.8385 490.443 31.7139C490.443 32.5245 490.686 33.2215 491.172 33.8051C491.691 34.3563 492.599 34.8264 493.896 35.2155L496.57 36.0423C500.98 37.404 503.185 39.787 503.185 43.1913C503.185 45.4609 502.39 47.2441 500.802 48.541C499.245 49.8379 497.219 50.4863 494.722 50.4863Z" fill="#161616"/>
<path d="M258.9 32.9049C256.7 31.1697 254.3 30.0129 251.9 28.509C250.4 27.5836 248.8 26.6581 247.5 25.3856C245.3 23.3033 245.7 19.1388 248.1 17.2879C251.4 14.7429 256.9 16.1311 257.5 21.3368C257.5 21.4524 257.6 21.5681 257.7 21.5681H262.7C262.8 21.5681 262.9 21.4524 262.9 21.3368C262.6 17.7506 261.4 14.7429 259.2 12.7763C257.1 10.9254 254.7 10 252.1 10C238.9 10 237.7 26.1954 244.8 31.2853C245.6 31.8638 252.6 35.9126 255.1 37.7635C257.6 39.4987 258.3 42.7378 257.3 45.2828C256.3 47.5964 253.8 49.2159 251.3 48.9846C248.5 48.7532 246.4 47.018 245.6 44.3573C245.5 43.8946 245.4 42.9691 245.4 42.5064C245.4 42.3907 245.3 42.2751 245.2 42.2751H239.8C239.7 42.2751 239.6 42.3907 239.6 42.5064C239.6 47.018 240.6 49.563 243.2 51.8766C245.7 54.0746 248.4 55 251.3 55C258.7 55 262.5 50.1414 263.3 45.1671C263.9 40.3085 262.7 35.9126 258.9 32.9049Z" fill="#161616"/>
<path d="M23.2 10.9258H20.8H18.2C18.1 10.9258 18 11.0415 18 11.0415L13.5 28.0466C13.4 28.278 13.2 28.278 13.1 28.0466L8.60001 11.0415C8.60001 10.9258 8.50001 10.9258 8.40001 10.9258H5.8H3.40001H0.200012C0.100012 10.9258 0 11.0415 0 11.1571V54.5376C0 54.6533 0.100012 54.769 0.200012 54.769H5.60001C5.70001 54.769 5.8 54.6533 5.8 54.5376V21.5685C5.8 21.3371 6.10001 21.2214 6.20001 21.4528L10.7 38.5736L11 39.7304C11 39.8461 11.1 39.8461 11.2 39.8461H15.4C15.5 39.8461 15.6 39.7304 15.6 39.7304L15.9 38.5736L20.4 21.4528C20.5 21.2214 20.8 21.2214 20.8 21.5685V54.5376C20.8 54.6533 20.9 54.769 21 54.769H26.4C26.5 54.769 26.6 54.6533 26.6 54.5376V11.1571C26.6 11.0415 26.5 10.9258 26.4 10.9258H23.2Z" fill="#161616"/>
<path d="M175.8 10.9258C175.7 10.9258 175.6 11.0415 175.6 11.0415L171.1 28.0466C171 28.278 170.8 28.278 170.7 28.0466L166.2 11.0415C166.2 10.9258 166.1 10.9258 166 10.9258H157.7C157.6 10.9258 157.5 11.0415 157.5 11.1571V54.5376C157.5 54.6533 157.6 54.769 157.7 54.769H163.1C163.2 54.769 163.3 54.6533 163.3 54.5376V21.5685C163.3 21.3371 163.6 21.2214 163.7 21.4528L168.2 38.5736L168.5 39.7304C168.5 39.8461 168.6 39.8461 168.7 39.8461H172.9C173 39.8461 173.1 39.7304 173.1 39.7304L173.4 38.5736L177.9 21.4528C178 21.2214 178.3 21.2214 178.3 21.5685V54.5376C178.3 54.6533 178.4 54.769 178.5 54.769H183.9C184 54.769 184.1 54.6533 184.1 54.5376V11.1571C184.1 11.0415 184 10.9258 183.9 10.9258H175.8Z" fill="#161616"/>
<path d="M105.8 10.9258H95.7004H90.3004H80.1004C80.0004 10.9258 79.9004 11.0415 79.9004 11.1571V16.5942C79.9004 16.7098 80.0004 16.8255 80.1004 16.8255H90.0004V54.5376C90.0004 54.6533 90.1004 54.769 90.2004 54.769H95.6004C95.7004 54.769 95.8004 54.6533 95.8004 54.5376V16.8255H105.7C105.8 16.8255 105.9 16.7098 105.9 16.5942V11.1571C106 11.0415 105.9 10.9258 105.8 10.9258Z" fill="#161616"/>
<path d="M137.8 54.7684H142.7C142.8 54.7684 142.9 54.6528 142.9 54.4214L132.7 10.9253C132.7 10.8096 132.6 10.8096 132.5 10.8096H130.6H127.3H125.4C125.3 10.8096 125.2 10.9253 125.2 10.9253L115 54.4214C115 54.5371 115.1 54.7684 115.2 54.7684H120.1C120.2 54.7684 120.3 54.6528 120.3 54.6528L123.3 41.9278C123.3 41.8121 123.4 41.8122 123.5 41.8122H134.4C134.5 41.8122 134.6 41.9278 134.6 41.9278L137.6 54.6528C137.6 54.6528 137.7 54.7684 137.8 54.7684ZM124.8 35.5654L128.8 18.5602C128.9 18.3288 129.1 18.3288 129.2 18.5602L133.2 35.5654C133.2 35.681 133.1 35.9124 133 35.9124H125.1C124.9 35.9124 124.8 35.681 124.8 35.5654Z" fill="#161616"/>
<path d="M222 54.7684H226.9C227 54.7684 227.1 54.6528 227.1 54.4214L216.9 10.9253C216.9 10.8096 216.8 10.8096 216.7 10.8096H214.8H211.5H209.6C209.5 10.8096 209.4 10.9253 209.4 10.9253L199.2 54.4214C199.2 54.5371 199.3 54.7684 199.4 54.7684H204.3C204.4 54.7684 204.5 54.6528 204.5 54.6528L207.5 41.9278C207.5 41.8121 207.6 41.8122 207.7 41.8122H218.6C218.7 41.8122 218.8 41.9278 218.8 41.9278L221.8 54.6528C221.8 54.6528 221.9 54.7684 222 54.7684ZM209 35.5654L213 18.5602C213.1 18.3288 213.3 18.3288 213.4 18.5602L217.4 35.5654C217.4 35.681 217.3 35.9124 217.2 35.9124H209.3C209.1 35.9124 209 35.681 209 35.5654Z" fill="#161616"/>
<path d="M48.5998 48.2908V34.8718C48.5998 34.7561 48.6998 34.6404 48.7998 34.6404H63.2998C63.3998 34.6404 63.4998 34.5247 63.4998 34.4091V28.972C63.4998 28.8564 63.3998 28.7407 63.2998 28.7407H48.7998C48.6998 28.7407 48.5998 28.625 48.5998 28.5093V17.0569C48.5998 16.9412 48.6998 16.8255 48.7998 16.8255H65.1998C65.2998 16.8255 65.3998 16.7098 65.3998 16.5942V11.1571C65.3998 11.0415 65.2998 10.9258 65.1998 10.9258H48.5998H42.9998C42.8998 10.9258 42.7998 11.0415 42.7998 11.1571V16.8255V28.8564V34.7561V48.6379V54.5376C42.7998 54.6533 42.8998 54.769 42.9998 54.769H48.5998H65.8998C65.9998 54.769 66.0998 54.6533 66.0998 54.5376V48.8692C66.0998 48.7535 65.9998 48.6379 65.8998 48.6379H48.6998C48.6998 48.5222 48.5998 48.4065 48.5998 48.2908Z" fill="#161616"/>
<path d="M308.5 54.3057L289.7 31.8636C289.6 31.7479 289.6 31.6322 289.7 31.5165L306.6 11.1566C306.7 11.0409 306.6 10.8096 306.5 10.8096H299.6C299.5 10.8096 299.5 10.8096 299.5 10.9253L285.1 28.2774C285 28.3931 284.8 28.2774 284.8 28.1618V11.2723C284.8 11.1566 284.7 11.0409 284.6 11.0409H279.1C279 11.0409 278.9 11.1566 278.9 11.2723V54.6528C278.9 54.7684 279 54.8841 279.1 54.8841H284.5C284.6 54.8841 284.7 54.7684 284.7 54.6528V35.5654C284.7 35.334 284.9 35.2183 285 35.4497L301.2 54.8841L301.3 54.9998H308.2C308.5 54.7684 308.6 54.4214 308.5 54.3057Z" fill="#161616"/>
</svg>
